<?xml version="1.0" encoding="iso-8859-1"?>
<!-- Generator: Adobe Illustrator 27.0.0, SVG Export Plug-In . SVG Version: 6.00 Build 0)  -->
<svg version="1.1" id="Layer_1" xmlns="http://www.w3.org/2000/svg" xmlns:xlink="http://www.w3.org/1999/xlink" x="0px" y="0px"
	 viewBox="0 0 500 500" style="enable-background:new 0 0 500 500;" xml:space="preserve">
<g id="watermark_1_">
	<g>
		<g id="watermark" style="opacity:0.61;">
			<g>
				<g>
					<g>
						<g>
							<polygon style="fill:#FFFFFF;" points="213.765,461.172 208.204,474.017 205.268,474.017 199.726,461.172 202.938,461.172 
								206.846,470.347 210.81,461.172 							"/>
						</g>
						<g>
							<path style="fill:#FFFFFF;" d="M223.507,469.741h-7.469c0.275,1.23,1.321,1.982,2.826,1.982c1.046,0,1.798-0.312,2.477-0.954
								l1.523,1.651c-0.917,1.046-2.294,1.597-4.074,1.597c-3.413,0-5.634-2.147-5.634-5.083c0-2.954,2.257-5.083,5.267-5.083
								c2.899,0,5.138,1.945,5.138,5.12C223.562,469.191,223.526,469.503,223.507,469.741 M216.002,468.071h4.863
								c-0.202-1.248-1.138-2.055-2.422-2.055C217.139,466.016,216.204,466.805,216.002,468.071"/>
						</g>
						<g>
							<path style="fill:#FFFFFF;" d="M224.735,468.934c0-2.973,2.294-5.083,5.505-5.083c2.074,0,3.707,0.899,4.423,2.514
								l-2.22,1.193c-0.532-0.936-1.321-1.358-2.221-1.358c-1.45,0-2.587,1.009-2.587,2.734c0,1.725,1.138,2.734,2.587,2.734
								c0.899,0,1.688-0.404,2.221-1.358l2.22,1.211c-0.716,1.578-2.349,2.495-4.423,2.495
								C227.029,474.017,224.735,471.907,224.735,468.934"/>
						</g>
						<g>
							<path style="fill:#FFFFFF;" d="M242.828,473.393c-0.587,0.422-1.45,0.624-2.331,0.624c-2.33,0-3.688-1.193-3.688-3.542
								v-4.055h-1.523v-2.202h1.523v-2.404h2.863v2.404h2.459v2.202h-2.459v4.019c0,0.844,0.458,1.303,1.229,1.303
								c0.422,0,0.844-0.128,1.156-0.367L242.828,473.393z"/>
						</g>
					</g>
					<g>
						<path style="fill:#FFFFFF;" d="M262.474,463.997v2.643c-0.238-0.018-0.422-0.037-0.642-0.037
							c-1.578,0-2.624,0.862-2.624,2.753v4.661h-2.863v-9.873h2.734v1.303C259.776,464.493,260.951,463.997,262.474,463.997"/>
					</g>
					<g>
						<path style="fill:#FFFFFF;" d="M263.299,472.53l1.009-2.239c1.083,0.789,2.697,1.339,4.239,1.339
							c1.762,0,2.477-0.587,2.477-1.376c0-2.404-7.469-0.752-7.469-5.524c0-2.184,1.762-4,5.413-4c1.615,0,3.267,0.385,4.459,1.138
							l-0.918,2.257c-1.193-0.679-2.422-1.009-3.56-1.009c-1.761,0-2.44,0.66-2.44,1.468c0,2.367,7.468,0.734,7.468,5.45
							c0,2.147-1.78,3.982-5.45,3.982C266.492,474.017,264.437,473.411,263.299,472.53"/>
					</g>
					<g>
						<path style="fill:#FFFFFF;" d="M285.428,469.741h-7.469c0.275,1.23,1.321,1.982,2.826,1.982c1.046,0,1.798-0.312,2.477-0.954
							l1.523,1.651c-0.918,1.046-2.294,1.597-4.074,1.597c-3.413,0-5.634-2.147-5.634-5.083c0-2.954,2.257-5.083,5.267-5.083
							c2.9,0,5.138,1.945,5.138,5.12C285.484,469.191,285.447,469.503,285.428,469.741 M277.923,468.071h4.863
							c-0.202-1.248-1.138-2.055-2.422-2.055C279.061,466.016,278.125,466.805,277.923,468.071"/>
					</g>
					<g>
						<path style="fill:#FFFFFF;" d="M297.007,469.741h-7.469c0.275,1.23,1.321,1.982,2.826,1.982c1.046,0,1.798-0.312,2.477-0.954
							l1.523,1.651c-0.918,1.046-2.294,1.597-4.074,1.597c-3.413,0-5.634-2.147-5.634-5.083c0-2.954,2.257-5.083,5.267-5.083
							c2.899,0,5.138,1.945,5.138,5.12C297.062,469.191,297.025,469.503,297.007,469.741 M289.501,468.071h4.863
							c-0.202-1.248-1.138-2.055-2.422-2.055C290.639,466.016,289.703,466.805,289.501,468.071"/>
					</g>
					<g>
						<polygon style="fill:#FFFFFF;" points="303.208,470.145 301.831,471.503 301.831,474.017 298.969,474.017 298.969,460.401 
							301.831,460.401 301.831,468.108 306.016,464.144 309.429,464.144 305.318,468.328 309.796,474.017 306.327,474.017 						"/>
					</g>
					<g>
						<path style="fill:#FFFFFF;" d="M256.601,475.359L256.601,475.359l-2.86-2.86c-0.435,0.508-0.953,0.943-1.534,1.284
							c-0.092,0.069-0.186,0.136-0.283,0.199l3.027,3.027c0.456,0.456,1.195,0.456,1.65,0
							C257.057,476.554,257.057,475.815,256.601,475.359"/>
					</g>
					<g>
						<path style="fill:#FFFFFF;" d="M249.984,463.244c0.221-0.173,0.495-0.281,0.797-0.281c0.042,0,0.083,0.002,0.124,0.006
							c-0.214-0.156-0.478-0.249-0.764-0.249c-0.395,0-0.744,0.18-0.981,0.458c-0.051,0-0.1,0.006-0.151,0.008
							c0.039-0.077,0.064-0.162,0.064-0.255c0-0.234-0.143-0.434-0.346-0.519c0.087,0.126,0.138,0.279,0.138,0.445
							c0,0.122-0.031,0.237-0.081,0.341c-2.811,0.201-5.03,2.539-5.03,5.4c0,2.993,2.426,5.42,5.42,5.42
							c2.993,0,5.42-2.426,5.42-5.42C254.595,465.879,252.593,463.635,249.984,463.244 M247.983,464.656
							c0.435,0,0.844,0.112,1.199,0.309c0.374-0.245,0.82-0.387,1.299-0.387c0.711,0,1.348,0.312,1.784,0.806
							c-0.435-0.379-1.004-0.61-1.627-0.61c-0.449,0-0.87,0.12-1.234,0.329c-0.079,0.046-0.156,0.096-0.229,0.15
							c-0.065-0.048-0.133-0.093-0.204-0.134c-0.369-0.219-0.8-0.344-1.26-0.344c-0.3,0-0.588,0.054-0.854,0.152
							C247.196,464.754,247.578,464.656,247.983,464.656 M251.772,469.098c0.115,0.305,0.181,0.634,0.181,0.979
							c0,1.534-1.244,2.777-2.778,2.777c-1.534,0-2.777-1.243-2.777-2.777c0-0.345,0.066-0.674,0.181-0.979
							c-0.62-0.382-1.035-1.064-1.035-1.846c0-1.197,0.971-2.168,2.168-2.168c0.565,0,1.078,0.218,1.463,0.572
							c0.386-0.354,0.899-0.572,1.464-0.572c1.197,0,2.168,0.971,2.168,2.168C252.807,468.034,252.392,468.716,251.772,469.098"/>
					</g>
					<g>
						<path style="fill:#FFFFFF;" d="M251.666,467.061c0,0.497-0.404,0.901-0.901,0.901c-0.497,0-0.901-0.404-0.901-0.901
							s0.404-0.901,0.901-0.901c0.101,0,0.197,0.017,0.287,0.047c-0.03,0.062-0.045,0.132-0.045,0.204
							c0,0.273,0.221,0.494,0.494,0.494c0.05,0,0.099-0.008,0.146-0.022C251.66,466.941,251.666,467,251.666,467.061"/>
					</g>
					<g>
						<path style="fill:#FFFFFF;" d="M248.255,467.061c0,0.376-0.305,0.681-0.681,0.681c-0.376,0-0.681-0.305-0.681-0.681
							s0.305-0.681,0.681-0.681c0.076,0,0.149,0.013,0.217,0.035c-0.023,0.047-0.034,0.1-0.034,0.155
							c0,0.206,0.167,0.374,0.374,0.374c0.038,0,0.075-0.006,0.11-0.017C248.25,466.97,248.255,467.015,248.255,467.061"/>
					</g>
					<g>
						<g>
							<g>
								<rect x="242.908" y="467.83" style="fill:#FFFFFF;" width="0.616" height="0.616"/>
							</g>
							<g>
								<rect x="254.827" y="467.83" style="fill:#FFFFFF;" width="0.616" height="0.616"/>
							</g>
							<g>
								<path style="fill:#FFFFFF;" d="M255.205,468.082h-0.14c0-3.248-2.642-5.89-5.89-5.89c-3.248,0-5.89,2.642-5.89,5.89h-0.14
									c0-1.611,0.627-3.125,1.766-4.264c1.139-1.139,2.653-1.766,4.264-1.766c1.611,0,3.125,0.627,4.264,1.766
									C254.578,464.957,255.205,466.471,255.205,468.082"/>
							</g>
						</g>
						<g>
							<rect x="248.868" y="461.814" style="fill:#FFFFFF;" width="0.616" height="0.616"/>
						</g>
						<g>
							<rect x="244.95" y="462.052" style="fill:#FFFFFF;" width="8.45" height="0.14"/>
						</g>
						<g>
							<path style="fill:#FFFFFF;" d="M245.174,462.15c0,0.108-0.088,0.196-0.196,0.196c-0.108,0-0.196-0.088-0.196-0.196
								c0-0.108,0.088-0.196,0.196-0.196C245.086,461.954,245.174,462.042,245.174,462.15"/>
						</g>
						<g>
							<path style="fill:#FFFFFF;" d="M253.596,462.15c0,0.108-0.088,0.196-0.196,0.196c-0.108,0-0.196-0.088-0.196-0.196
								c0-0.108,0.088-0.196,0.196-0.196C253.509,461.954,253.596,462.042,253.596,462.15"/>
						</g>
					</g>
				</g>
				<g>
					<path style="fill:#FFFFFF;" d="M314.356,473.409c0,1.559-2.364,1.559-2.364,0C311.993,471.851,314.356,471.851,314.356,473.409
						z"/>
				</g>
				<g>
					<g>
						<g>
							<path style="fill:#FFFFFF;" d="M161.739,466.549l1.772,6.088l1.855-6.088h2.215l-2.823,8.14h-2.33l-0.837-2.396l-0.722-2.708
								l-0.722,2.708l-0.837,2.396h-2.33l-2.839-8.14h2.231l1.855,6.088l1.756-6.088H161.739z"/>
						</g>
						<g>
							<path style="fill:#FFFFFF;" d="M176.713,466.549l1.772,6.088l1.855-6.088h2.215l-2.823,8.14h-2.33l-0.837-2.396l-0.722-2.708
								l-0.722,2.708l-0.837,2.396h-2.33l-2.839-8.14h2.231l1.855,6.088l1.756-6.088H176.713z"/>
						</g>
						<g>
							<path style="fill:#FFFFFF;" d="M191.687,466.549l1.772,6.088l1.855-6.088h2.215l-2.823,8.14h-2.33l-0.837-2.396l-0.722-2.708
								l-0.722,2.708l-0.837,2.396h-2.33l-2.839-8.14h2.231l1.855,6.088l1.756-6.088H191.687z"/>
						</g>
					</g>
					<g>
						<path style="fill:#FFFFFF;" d="M200.908,473.52c0,1.559-2.364,1.559-2.364,0C198.545,471.962,200.908,471.962,200.908,473.52z
							"/>
					</g>
					<g>
						<path style="fill:#FFFFFF;" d="M322.71,473.409c-0.935,0.919-1.919,1.28-3.117,1.28c-2.346,0-4.3-1.411-4.3-4.282
							s1.953-4.284,4.3-4.284c1.149,0,2.035,0.329,2.921,1.199l-1.264,1.329c-0.476-0.428-1.066-0.64-1.623-0.64
							c-1.346,0-2.33,0.985-2.33,2.396c0,1.542,1.05,2.362,2.297,2.362c0.64,0,1.28-0.18,1.772-0.672L322.71,473.409z"/>
					</g>
					<g>
						<path style="fill:#FFFFFF;" d="M331.805,470.472c0,2.33-1.591,4.217-4.217,4.217c-2.626,0-4.201-1.887-4.201-4.217
							c0-2.314,1.609-4.217,4.185-4.217C330.149,466.255,331.805,468.158,331.805,470.472z M325.389,470.472
							c0,1.231,0.739,2.38,2.199,2.38c1.46,0,2.199-1.149,2.199-2.38c0-1.215-0.854-2.396-2.199-2.396
							C326.144,468.077,325.389,469.258,325.389,470.472z"/>
					</g>
					<g>
						<path style="fill:#FFFFFF;" d="M338.572,474.689v-4.332c0-1.068-0.559-2.035-1.658-2.035c-1.082,0-1.722,0.967-1.722,2.035
							v4.332h-2.003v-8.107h1.855l0.148,0.985c0.426-0.82,1.362-1.116,2.133-1.116c0.969,0,1.937,0.394,2.396,1.51
							c0.723-1.149,1.658-1.478,2.708-1.478c2.297,0,3.43,1.412,3.43,3.84v4.365h-2.003v-4.365c0-1.066-0.442-1.97-1.526-1.97
							c-1.082,0-1.756,0.935-1.756,2.003v4.332H338.572z"/>
					</g>
				</g>
			</g>
		</g>
		<g style="opacity:0.61;">
			<g>
				<g>
					<path style="fill:#FFFFFF;" d="M345.988,431.299c-0.006-1.224-0.959-2.121-2.189-2.14c-0.924-0.014-0.832,0.12-0.834-0.867
						c-0.003-1.097-0.007-2.194,0.003-3.292c0.003-0.379-0.112-0.691-0.362-0.976c-2.342-2.668-4.678-5.342-7.019-8.011
						c-0.12-0.137-0.275-0.244-0.414-0.366c-6.214,0-12.427,0-18.641,0c-0.794,0.293-1.14,0.868-1.138,1.709
						c0.01,3.748,0.004,7.496,0.004,11.243c0,0.556-0.003,0.589-0.55,0.551c-1.497-0.102-2.516,0.986-2.497,2.492
						c0.044,3.476,0.013,6.953,0.014,10.429c0.001,1.58,0.867,2.443,2.45,2.449c0.582,0.002,0.582,0.002,0.582,0.6
						c0,2.219-0.001,4.438,0.001,6.657c0.001,1.192,0.58,1.771,1.768,1.771c8.013,0.001,16.027,0.001,24.04,0
						c1.168,0,1.755-0.583,1.757-1.745c0.002-2.256,0-4.512,0.001-6.768c0-0.512,0.002-0.511,0.52-0.515
						c0.271-0.002,0.541,0.008,0.809-0.058c0.996-0.246,1.69-1.044,1.694-2.069C346.003,438.696,346.005,434.997,345.988,431.299z
						 M317.537,417.162c5.337,0,10.674,0,16.01,0c0.548,0,0.554,0.007,0.554,0.561c0.001,2.243-0.001,4.486,0.001,6.73
						c0.001,0.811,0.249,1.059,1.06,1.059c1.91,0.001,3.821,0,5.731,0.001c0.458,0,0.479,0.021,0.481,0.483
						c0.003,0.887,0.002,1.775,0,2.662c-0.001,0.477-0.024,0.498-0.504,0.499c-3.895,0.001-7.79,0-11.684,0
						c-3.882,0-7.765,0-11.647,0c-0.55,0-0.552-0.001-0.552-0.561c-0.001-3.624-0.001-7.247,0-10.871
						C316.987,417.166,316.991,417.162,317.537,417.162z M340.822,451.579c-3.883,0.001-7.766,0-11.65,0c-3.871,0-7.742,0-11.613,0
						c-0.572,0-0.574-0.002-0.574-0.579c-0.001-1.997-0.001-3.994,0.001-5.991c0-0.464,0.023-0.486,0.478-0.487
						c7.803-0.001,15.607-0.001,23.41,0c0.478,0,0.499,0.02,0.499,0.503c0.002,1.997,0.001,3.994,0,5.991
						C341.375,451.574,341.37,451.579,340.822,451.579z"/>
				</g>
				<g>
					<g>
						<rect x="327.418" y="417.053" style="fill:#FFFFFF;" width="1.757" height="1.054"/>
					</g>
					<g>
						<rect x="325.662" y="418.107" style="fill:#FFFFFF;" width="1.757" height="1.054"/>
					</g>
					<g>
						<rect x="327.418" y="419.161" style="fill:#FFFFFF;" width="1.757" height="1.054"/>
					</g>
					<g>
						<rect x="325.662" y="420.215" style="fill:#FFFFFF;" width="1.757" height="1.054"/>
					</g>
					<g>
						<rect x="327.418" y="421.269" style="fill:#FFFFFF;" width="1.757" height="1.054"/>
					</g>
					<g>
						<rect x="325.662" y="422.323" style="fill:#FFFFFF;" width="1.757" height="1.054"/>
					</g>
					<g>
						<rect x="327.418" y="423.378" style="fill:#FFFFFF;" width="1.757" height="1.054"/>
					</g>
					<g>
						<rect x="325.662" y="424.432" style="fill:#FFFFFF;" width="1.757" height="1.054"/>
					</g>
					<g>
						<rect x="327.418" y="425.486" style="fill:#FFFFFF;" width="1.757" height="1.054"/>
					</g>
					<g>
						<rect x="325.662" y="426.54" style="fill:#FFFFFF;" width="1.757" height="1.054"/>
					</g>
					<g>
						<rect x="327.418" y="427.594" style="fill:#FFFFFF;" width="1.757" height="1.054"/>
					</g>
					<g>
						<rect x="325.662" y="428.648" style="fill:#FFFFFF;" width="1.757" height="1.054"/>
					</g>
				</g>
			</g>
			<g>
				<path style="fill:#FFFFFF;" d="M187.637,431.299c-0.006-1.224-0.959-2.121-2.189-2.14c-0.924-0.014-0.832,0.12-0.834-0.867
					c-0.003-1.097-0.007-2.194,0.003-3.292c0.003-0.379-0.112-0.691-0.362-0.976c-2.342-2.668-4.678-5.342-7.019-8.011
					c-0.12-0.137-0.275-0.244-0.414-0.366c-6.214,0-12.427,0-18.641,0c-0.794,0.293-1.14,0.868-1.138,1.709
					c0.01,3.748,0.004,7.496,0.004,11.243c0,0.556-0.003,0.589-0.55,0.551c-1.497-0.102-2.516,0.986-2.497,2.492
					c0.044,3.476,0.013,6.953,0.014,10.429c0.001,1.58,0.867,2.443,2.45,2.449c0.582,0.002,0.582,0.002,0.582,0.6
					c0,2.219-0.001,4.438,0.001,6.657c0.001,1.192,0.58,1.771,1.768,1.771c8.013,0.001,16.027,0.001,24.04,0
					c1.168,0,1.755-0.583,1.757-1.745c0.002-2.256,0-4.512,0.001-6.768c0-0.512,0.002-0.511,0.52-0.515
					c0.271-0.002,0.541,0.008,0.809-0.058c0.996-0.246,1.69-1.044,1.694-2.069C187.652,438.696,187.655,434.997,187.637,431.299z
					 M159.187,417.162c5.337,0,10.674,0,16.01,0c0.548,0,0.554,0.007,0.554,0.561c0.001,2.243-0.001,4.486,0.001,6.73
					c0.001,0.811,0.249,1.059,1.06,1.059c1.91,0.001,3.821,0,5.731,0.001c0.458,0,0.479,0.021,0.481,0.483
					c0.003,0.887,0.002,1.775,0,2.662c-0.001,0.477-0.024,0.498-0.504,0.499c-3.895,0.001-7.79,0-11.684,0
					c-3.882,0-7.765,0-11.647,0c-0.55,0-0.552-0.001-0.552-0.561c-0.001-3.624-0.001-7.247,0-10.871
					C158.636,417.166,158.64,417.162,159.187,417.162z M182.472,451.579c-3.883,0.001-7.766,0-11.65,0c-3.871,0-7.742,0-11.613,0
					c-0.572,0-0.574-0.002-0.574-0.579c-0.001-1.997-0.001-3.994,0.001-5.991c0-0.464,0.023-0.486,0.478-0.487
					c7.803-0.001,15.607-0.001,23.41,0c0.478,0,0.499,0.02,0.499,0.503c0.002,1.997,0.001,3.994,0,5.991
					C183.024,451.574,183.019,451.579,182.472,451.579z"/>
			</g>
			<g>
				<path style="fill:#FFFFFF;" d="M159.779,440.669v-7.897h2.779c0.375,0,0.726,0.061,1.053,0.182
					c0.327,0.121,0.612,0.292,0.855,0.513c0.242,0.221,0.434,0.483,0.573,0.789c0.14,0.305,0.21,0.642,0.21,1.009
					c0,0.375-0.07,0.715-0.21,1.02c-0.14,0.305-0.331,0.568-0.573,0.789c-0.243,0.221-0.528,0.392-0.855,0.513
					c-0.327,0.121-0.678,0.182-1.053,0.182h-1.29v2.901H159.779z M162.58,436.356c0.39,0,0.684-0.111,0.882-0.331
					c0.199-0.22,0.298-0.474,0.298-0.761c0-0.14-0.024-0.276-0.072-0.408c-0.048-0.132-0.121-0.248-0.221-0.347
					c-0.099-0.099-0.223-0.178-0.37-0.237c-0.147-0.059-0.32-0.089-0.518-0.089h-1.312v2.173H162.58z"/>
				<path style="fill:#FFFFFF;" d="M166.308,432.771h1.731l3.177,5.294h0.088l-0.088-1.522v-3.772h1.478v7.897h-1.566l-3.353-5.592
					h-0.088l0.088,1.522v4.07h-1.467V432.771z"/>
				<path style="fill:#FFFFFF;" d="M177.922,436.334h3.872c0.022,0.089,0.04,0.195,0.055,0.32c0.014,0.125,0.022,0.25,0.022,0.375
					c0,0.507-0.077,0.985-0.231,1.434c-0.154,0.449-0.397,0.849-0.728,1.202c-0.353,0.375-0.776,0.666-1.268,0.871
					c-0.493,0.206-1.055,0.309-1.688,0.309c-0.574,0-1.114-0.103-1.622-0.309c-0.507-0.206-0.948-0.492-1.323-0.86
					c-0.375-0.367-0.673-0.803-0.894-1.307c-0.221-0.504-0.331-1.053-0.331-1.649c0-0.595,0.11-1.145,0.331-1.649
					c0.221-0.504,0.518-0.939,0.894-1.307c0.375-0.367,0.816-0.654,1.323-0.86c0.507-0.206,1.048-0.309,1.622-0.309
					c0.64,0,1.211,0.11,1.715,0.331c0.504,0.221,0.935,0.526,1.296,0.915l-1.025,1.004c-0.258-0.272-0.544-0.48-0.861-0.623
					c-0.316-0.143-0.695-0.215-1.136-0.215c-0.361,0-0.703,0.065-1.026,0.193c-0.324,0.129-0.607,0.311-0.85,0.546
					c-0.242,0.235-0.436,0.52-0.579,0.855c-0.143,0.335-0.215,0.708-0.215,1.119c0,0.412,0.072,0.785,0.215,1.12
					c0.143,0.335,0.338,0.62,0.584,0.855c0.246,0.235,0.531,0.418,0.855,0.546c0.323,0.129,0.669,0.193,1.037,0.193
					c0.419,0,0.773-0.061,1.064-0.182c0.29-0.121,0.538-0.278,0.744-0.469c0.148-0.132,0.275-0.3,0.381-0.502
					c0.106-0.202,0.189-0.428,0.248-0.678h-2.482V436.334z"/>
			</g>
			<g>
				<path style="fill:#FFFFFF;" d="M224.019,431.299c-0.006-1.224-0.959-2.121-2.189-2.14c-0.924-0.014-0.832,0.12-0.834-0.867
					c-0.003-1.097-0.007-2.194,0.003-3.292c0.003-0.379-0.112-0.691-0.362-0.976c-2.342-2.668-4.678-5.342-7.019-8.011
					c-0.12-0.137-0.275-0.244-0.414-0.366c-6.214,0-12.427,0-18.641,0c-0.794,0.293-1.14,0.868-1.138,1.709
					c0.01,3.748,0.004,7.496,0.004,11.243c0,0.556-0.003,0.589-0.55,0.551c-1.497-0.102-2.516,0.986-2.497,2.492
					c0.044,3.476,0.013,6.953,0.014,10.429c0.001,1.58,0.867,2.443,2.45,2.449c0.582,0.002,0.582,0.002,0.582,0.6
					c0,2.219-0.001,4.438,0.001,6.657c0.001,1.192,0.58,1.771,1.768,1.771c8.013,0.001,16.027,0.001,24.04,0
					c1.168,0,1.755-0.583,1.757-1.745c0.002-2.256,0-4.512,0.001-6.768c0-0.512,0.002-0.511,0.52-0.515
					c0.271-0.002,0.541,0.008,0.809-0.058c0.997-0.246,1.69-1.044,1.694-2.069C224.034,438.696,224.036,434.997,224.019,431.299z
					 M195.568,417.162c5.337,0,10.674,0,16.01,0c0.548,0,0.554,0.007,0.554,0.561c0.001,2.243-0.001,4.486,0.001,6.73
					c0.001,0.811,0.249,1.059,1.06,1.059c1.91,0.001,3.821,0,5.731,0.001c0.458,0,0.479,0.021,0.481,0.483
					c0.003,0.887,0.002,1.775,0,2.662c-0.001,0.477-0.024,0.498-0.504,0.499c-3.895,0.001-7.79,0-11.684,0
					c-3.882,0-7.765,0-11.647,0c-0.55,0-0.552-0.001-0.552-0.561c-0.001-3.624-0.001-7.247,0-10.871
					C195.018,417.166,195.022,417.162,195.568,417.162z M218.854,451.579c-3.883,0.001-7.766,0-11.65,0c-3.871,0-7.742,0-11.613,0
					c-0.572,0-0.574-0.002-0.574-0.579c-0.001-1.997-0.001-3.994,0.001-5.991c0-0.464,0.023-0.486,0.478-0.487
					c7.803-0.001,15.607-0.001,23.41,0c0.478,0,0.499,0.02,0.499,0.503c0.002,1.997,0.001,3.994,0,5.991
					C219.406,451.574,219.401,451.579,218.854,451.579z"/>
			</g>
			<g>
				<path style="fill:#FFFFFF;" d="M205.111,432.771h1.699l2.967,7.897h-1.644l-0.651-1.886h-3.044l-0.651,1.886h-1.643
					L205.111,432.771z M206.997,437.415l-0.706-1.974l-0.287-0.96h-0.088l-0.287,0.96l-0.706,1.974H206.997z"/>
				<path style="fill:#FFFFFF;" d="M211.331,434.536c-0.125,0-0.245-0.024-0.359-0.072c-0.114-0.048-0.213-0.114-0.298-0.199
					c-0.084-0.084-0.151-0.182-0.198-0.292c-0.048-0.11-0.072-0.232-0.072-0.364s0.024-0.254,0.072-0.364
					c0.048-0.11,0.114-0.208,0.198-0.292c0.084-0.084,0.184-0.151,0.298-0.198c0.114-0.048,0.233-0.072,0.359-0.072
					c0.257,0,0.478,0.09,0.662,0.27c0.184,0.181,0.276,0.399,0.276,0.656s-0.092,0.476-0.276,0.656
					C211.809,434.446,211.589,434.536,211.331,434.536z M210.615,440.669v-5.404h1.445v5.404H210.615z"/>
			</g>
			<g>
				<path style="fill:#FFFFFF;" d="M261.044,431.299c-0.006-1.224-0.959-2.121-2.189-2.14c-0.924-0.014-0.832,0.12-0.834-0.867
					c-0.003-1.097-0.007-2.194,0.003-3.292c0.003-0.379-0.112-0.691-0.362-0.976c-2.342-2.668-4.678-5.342-7.019-8.011
					c-0.12-0.137-0.275-0.244-0.414-0.366c-6.214,0-12.427,0-18.641,0c-0.794,0.293-1.14,0.868-1.138,1.709
					c0.01,3.748,0.004,7.496,0.004,11.243c0,0.556-0.003,0.589-0.55,0.551c-1.497-0.102-2.516,0.986-2.497,2.492
					c0.044,3.476,0.013,6.953,0.014,10.429c0.001,1.58,0.867,2.443,2.45,2.449c0.582,0.002,0.582,0.002,0.582,0.6
					c0,2.219-0.001,4.438,0.001,6.657c0.001,1.192,0.58,1.771,1.768,1.771c8.013,0.001,16.027,0.001,24.04,0
					c1.168,0,1.755-0.583,1.757-1.745c0.002-2.256,0-4.512,0.001-6.768c0-0.512,0.002-0.511,0.52-0.515
					c0.271-0.002,0.541,0.008,0.809-0.058c0.996-0.246,1.69-1.044,1.694-2.069C261.059,438.696,261.061,434.997,261.044,431.299z
					 M232.593,417.162c5.337,0,10.674,0,16.01,0c0.548,0,0.554,0.007,0.554,0.561c0.001,2.243-0.001,4.486,0.001,6.73
					c0.001,0.811,0.249,1.059,1.06,1.059c1.91,0.001,3.821,0,5.731,0.001c0.458,0,0.479,0.021,0.481,0.483
					c0.003,0.887,0.002,1.775,0,2.662c-0.001,0.477-0.024,0.498-0.504,0.499c-3.895,0.001-7.79,0-11.684,0
					c-3.882,0-7.765,0-11.647,0c-0.55,0-0.552-0.001-0.552-0.561c-0.001-3.624-0.001-7.247,0-10.871
					C232.042,417.166,232.047,417.162,232.593,417.162z M255.878,451.579c-3.883,0.001-7.766,0-11.65,0c-3.871,0-7.742,0-11.613,0
					c-0.572,0-0.574-0.002-0.574-0.579c-0.001-1.997-0.001-3.994,0.001-5.991c0-0.464,0.023-0.486,0.478-0.487
					c7.803-0.001,15.607-0.001,23.41,0c0.478,0,0.499,0.02,0.499,0.503c0.002,1.997,0.001,3.994,0,5.991
					C256.431,451.574,256.426,451.579,255.878,451.579z"/>
			</g>
			<g>
				<path style="fill:#FFFFFF;" d="M236.361,440.845c-0.338,0-0.662-0.048-0.971-0.143c-0.309-0.095-0.592-0.239-0.849-0.43
					c-0.257-0.191-0.481-0.425-0.673-0.7c-0.191-0.276-0.342-0.597-0.452-0.965l1.401-0.551c0.103,0.397,0.283,0.726,0.54,0.987
					c0.257,0.261,0.596,0.392,1.015,0.392c0.154,0,0.303-0.02,0.447-0.061c0.143-0.04,0.272-0.099,0.386-0.176
					s0.204-0.175,0.27-0.292c0.066-0.118,0.099-0.254,0.099-0.408c0-0.147-0.026-0.279-0.077-0.397
					c-0.051-0.117-0.138-0.227-0.259-0.331c-0.121-0.103-0.28-0.202-0.475-0.298c-0.195-0.095-0.435-0.195-0.722-0.298l-0.485-0.176
					c-0.213-0.073-0.429-0.173-0.645-0.298c-0.217-0.125-0.413-0.276-0.59-0.452c-0.177-0.176-0.322-0.384-0.436-0.623
					c-0.114-0.239-0.171-0.509-0.171-0.81c0-0.309,0.06-0.597,0.182-0.866c0.121-0.268,0.294-0.503,0.518-0.706
					c0.224-0.202,0.492-0.36,0.805-0.474s0.66-0.171,1.042-0.171c0.397,0,0.74,0.053,1.031,0.16
					c0.291,0.107,0.537,0.243,0.739,0.408c0.202,0.165,0.366,0.348,0.491,0.546c0.125,0.199,0.217,0.386,0.276,0.563l-1.312,0.551
					c-0.074-0.221-0.208-0.419-0.402-0.596c-0.195-0.176-0.462-0.265-0.8-0.265c-0.324,0-0.592,0.075-0.805,0.226
					c-0.213,0.151-0.32,0.348-0.32,0.59c0,0.235,0.103,0.436,0.309,0.601c0.206,0.165,0.533,0.325,0.982,0.48l0.497,0.165
					c0.316,0.111,0.605,0.237,0.866,0.381c0.261,0.143,0.485,0.314,0.673,0.513c0.187,0.199,0.331,0.425,0.43,0.678
					c0.1,0.254,0.149,0.546,0.149,0.877c0,0.412-0.083,0.767-0.248,1.064c-0.165,0.298-0.377,0.542-0.634,0.734
					c-0.258,0.191-0.548,0.335-0.872,0.43C236.986,440.797,236.67,440.845,236.361,440.845z"/>
				<path style="fill:#FFFFFF;" d="M239.516,432.771h1.61l1.633,4.754l0.287,1.015h0.088l0.309-1.015l1.699-4.754h1.61l-2.879,7.897
					h-1.566L239.516,432.771z"/>
				<path style="fill:#FFFFFF;" d="M251.097,436.334h3.871c0.022,0.089,0.04,0.195,0.055,0.32c0.015,0.125,0.023,0.25,0.023,0.375
					c0,0.507-0.078,0.985-0.232,1.434c-0.154,0.449-0.397,0.849-0.728,1.202c-0.353,0.375-0.775,0.666-1.268,0.871
					c-0.493,0.206-1.055,0.309-1.688,0.309c-0.574,0-1.114-0.103-1.621-0.309c-0.507-0.206-0.949-0.492-1.324-0.86
					c-0.375-0.367-0.673-0.803-0.894-1.307c-0.22-0.504-0.331-1.053-0.331-1.649c0-0.595,0.11-1.145,0.331-1.649
					c0.221-0.504,0.518-0.939,0.894-1.307c0.375-0.367,0.816-0.654,1.324-0.86c0.507-0.206,1.047-0.309,1.621-0.309
					c0.64,0,1.211,0.11,1.715,0.331c0.504,0.221,0.936,0.526,1.296,0.915l-1.026,1.004c-0.257-0.272-0.544-0.48-0.861-0.623
					c-0.316-0.143-0.694-0.215-1.136-0.215c-0.36,0-0.702,0.065-1.026,0.193c-0.323,0.129-0.607,0.311-0.849,0.546
					c-0.243,0.235-0.436,0.52-0.579,0.855c-0.143,0.335-0.215,0.708-0.215,1.119c0,0.412,0.072,0.785,0.215,1.12
					c0.143,0.335,0.338,0.62,0.585,0.855c0.246,0.235,0.531,0.418,0.854,0.546c0.324,0.129,0.669,0.193,1.037,0.193
					c0.419,0,0.774-0.061,1.064-0.182c0.29-0.121,0.539-0.278,0.745-0.469c0.147-0.132,0.274-0.3,0.38-0.502
					c0.107-0.202,0.189-0.428,0.248-0.678h-2.482V436.334z"/>
			</g>
			<g>
				<path style="fill:#FFFFFF;" d="M297.3,431.299c-0.006-1.224-0.959-2.121-2.189-2.14c-0.924-0.014-0.832,0.12-0.834-0.867
					c-0.003-1.097-0.007-2.194,0.003-3.292c0.003-0.379-0.112-0.691-0.362-0.976c-2.342-2.668-4.678-5.342-7.019-8.011
					c-0.12-0.137-0.275-0.244-0.414-0.366c-6.214,0-12.427,0-18.641,0c-0.794,0.293-1.14,0.868-1.138,1.709
					c0.01,3.748,0.004,7.496,0.004,11.243c0,0.556-0.003,0.589-0.55,0.551c-1.497-0.102-2.516,0.986-2.497,2.492
					c0.044,3.476,0.013,6.953,0.014,10.429c0.001,1.58,0.867,2.443,2.45,2.449c0.582,0.002,0.582,0.002,0.582,0.6
					c0,2.219-0.001,4.438,0.001,6.657c0.001,1.192,0.58,1.771,1.768,1.771c8.013,0.001,16.027,0.001,24.04,0
					c1.168,0,1.755-0.583,1.757-1.745c0.002-2.256,0-4.512,0.001-6.768c0-0.512,0.002-0.511,0.52-0.515
					c0.271-0.002,0.541,0.008,0.809-0.058c0.996-0.246,1.69-1.044,1.694-2.069C297.315,438.696,297.318,434.997,297.3,431.299z
					 M268.85,417.162c5.337,0,10.674,0,16.01,0c0.548,0,0.554,0.007,0.554,0.561c0.001,2.243-0.001,4.486,0.001,6.73
					c0.001,0.811,0.249,1.059,1.06,1.059c1.91,0.001,3.821,0,5.731,0.001c0.458,0,0.479,0.021,0.481,0.483
					c0.003,0.887,0.002,1.775,0,2.662c-0.001,0.477-0.024,0.498-0.504,0.499c-3.895,0.001-7.79,0-11.684,0
					c-3.882,0-7.765,0-11.647,0c-0.55,0-0.552-0.001-0.552-0.561c-0.001-3.624-0.001-7.247,0-10.871
					C268.299,417.166,268.303,417.162,268.85,417.162z M292.135,451.579c-3.883,0.001-7.766,0-11.65,0c-3.871,0-7.742,0-11.613,0
					c-0.572,0-0.574-0.002-0.574-0.579c-0.001-1.997-0.001-3.994,0.001-5.991c0-0.464,0.023-0.486,0.478-0.487
					c7.803-0.001,15.607-0.001,23.41,0c0.478,0,0.499,0.02,0.499,0.503c0.001,1.997,0.001,3.994,0,5.991
					C292.687,451.574,292.682,451.579,292.135,451.579z"/>
			</g>
			<g>
				<path style="fill:#FFFFFF;" d="M272.966,434.183v1.831h3.165v1.412h-3.165v1.831h3.518v1.412h-5.007v-7.897h5.007v1.412H272.966
					z"/>
				<path style="fill:#FFFFFF;" d="M277.852,440.669v-7.897h2.779c0.375,0,0.726,0.061,1.053,0.182
					c0.327,0.121,0.612,0.292,0.855,0.513c0.243,0.221,0.434,0.483,0.574,0.789c0.14,0.305,0.209,0.642,0.209,1.009
					c0,0.375-0.07,0.715-0.209,1.02c-0.14,0.305-0.331,0.568-0.574,0.789c-0.243,0.221-0.528,0.392-0.855,0.513
					c-0.327,0.121-0.678,0.182-1.053,0.182h-1.29v2.901H277.852z M280.653,436.356c0.389,0,0.684-0.111,0.882-0.331
					c0.199-0.22,0.298-0.474,0.298-0.761c0-0.14-0.024-0.276-0.072-0.408c-0.048-0.132-0.121-0.248-0.221-0.347
					c-0.099-0.099-0.222-0.178-0.37-0.237c-0.147-0.059-0.32-0.089-0.518-0.089h-1.312v2.173H280.653z"/>
				<path style="fill:#FFFFFF;" d="M286.797,440.845c-0.338,0-0.662-0.048-0.971-0.143c-0.309-0.095-0.592-0.239-0.849-0.43
					c-0.257-0.191-0.482-0.425-0.673-0.7c-0.191-0.276-0.342-0.597-0.452-0.965l1.401-0.551c0.103,0.397,0.283,0.726,0.541,0.987
					c0.257,0.261,0.595,0.392,1.015,0.392c0.154,0,0.303-0.02,0.447-0.061c0.143-0.04,0.272-0.099,0.386-0.176
					c0.114-0.077,0.204-0.175,0.27-0.292c0.066-0.118,0.1-0.254,0.1-0.408c0-0.147-0.026-0.279-0.077-0.397
					c-0.051-0.117-0.138-0.227-0.259-0.331c-0.121-0.103-0.279-0.202-0.474-0.298c-0.195-0.095-0.436-0.195-0.723-0.298
					l-0.485-0.176c-0.213-0.073-0.428-0.173-0.645-0.298c-0.217-0.125-0.414-0.276-0.59-0.452c-0.176-0.176-0.322-0.384-0.436-0.623
					c-0.114-0.239-0.171-0.509-0.171-0.81c0-0.309,0.061-0.597,0.182-0.866c0.121-0.268,0.294-0.503,0.518-0.706
					c0.224-0.202,0.493-0.36,0.805-0.474c0.312-0.114,0.66-0.171,1.042-0.171c0.397,0,0.741,0.053,1.031,0.16
					c0.29,0.107,0.537,0.243,0.739,0.408c0.202,0.165,0.365,0.348,0.491,0.546c0.125,0.199,0.217,0.386,0.276,0.563l-1.312,0.551
					c-0.074-0.221-0.208-0.419-0.403-0.596c-0.195-0.176-0.462-0.265-0.799-0.265c-0.324,0-0.592,0.075-0.805,0.226
					c-0.213,0.151-0.32,0.348-0.32,0.59c0,0.235,0.103,0.436,0.309,0.601c0.206,0.165,0.533,0.325,0.982,0.48l0.496,0.165
					c0.316,0.111,0.605,0.237,0.866,0.381c0.261,0.143,0.485,0.314,0.673,0.513c0.187,0.199,0.331,0.425,0.43,0.678
					c0.099,0.254,0.149,0.546,0.149,0.877c0,0.412-0.083,0.767-0.248,1.064c-0.165,0.298-0.377,0.542-0.634,0.734
					c-0.258,0.191-0.548,0.335-0.872,0.43C287.422,440.797,287.105,440.845,286.797,440.845z"/>
			</g>
			<g>
				<path style="fill:#FFFFFF;" d="M321.394,439.168l4.004-4.985h-3.827v-1.412h5.559v1.5l-3.96,4.985h4.004v1.412h-5.779V439.168z"
					/>
				<path style="fill:#FFFFFF;" d="M328.409,432.771h1.489v7.897h-1.489V432.771z"/>
				<path style="fill:#FFFFFF;" d="M331.486,440.669v-7.897h2.779c0.375,0,0.726,0.061,1.053,0.182
					c0.327,0.121,0.612,0.292,0.855,0.513s0.434,0.483,0.574,0.789c0.14,0.305,0.209,0.642,0.209,1.009
					c0,0.375-0.07,0.715-0.209,1.02c-0.14,0.305-0.331,0.568-0.574,0.789c-0.243,0.221-0.528,0.392-0.855,0.513
					c-0.327,0.121-0.678,0.182-1.053,0.182h-1.29v2.901H331.486z M334.288,436.356c0.389,0,0.684-0.111,0.882-0.331
					c0.199-0.22,0.298-0.474,0.298-0.761c0-0.14-0.024-0.276-0.072-0.408c-0.048-0.132-0.121-0.248-0.221-0.347
					c-0.099-0.099-0.222-0.178-0.37-0.237c-0.147-0.059-0.32-0.089-0.518-0.089h-1.312v2.173H334.288z"/>
			</g>
		</g>
		<g style="opacity:0.61;">
			<path style="fill:#FFFFFF;" d="M300.133,433.27h9.067v2.242h-9.067V433.27z M300.133,437.136h9.067v2.243h-9.067V437.136z"/>
		</g>
	</g>
	<g style="opacity:0.61;">
		<path style="fill:#FFFFFF;" d="M156.756,478.878h1.607c1.263,0,2.114,0.812,2.114,1.974c0,1.161-0.851,1.973-2.114,1.973h-1.607
			V478.878z M158.34,482.464c1.049,0,1.725-0.665,1.725-1.612c0-0.947-0.677-1.613-1.725-1.613h-1.167v3.225H158.34z"/>
		<path style="fill:#FFFFFF;" d="M165.139,480.851c0-1.15,0.879-2.007,2.075-2.007c1.184,0,2.069,0.851,2.069,2.007
			c0,1.156-0.885,2.007-2.069,2.007C166.019,482.858,165.139,482.002,165.139,480.851z M168.866,480.851
			c0-0.942-0.705-1.635-1.652-1.635c-0.953,0-1.663,0.693-1.663,1.635c0,0.941,0.71,1.635,1.663,1.635
			C168.162,482.486,168.866,481.793,168.866,480.851z"/>
		<path style="fill:#FFFFFF;" d="M179.596,478.878l-1.331,3.947h-0.44l-1.156-3.366l-1.161,3.366h-0.434l-1.331-3.947h0.429
			l1.139,3.394l1.178-3.394h0.389l1.161,3.411l1.156-3.411H179.596z"/>
		<path style="fill:#FFFFFF;" d="M187.731,478.878v3.947h-0.344l-2.537-3.202v3.202h-0.417v-3.947h0.344l2.543,3.203v-3.203H187.731
			z"/>
		<path style="fill:#FFFFFF;" d="M193.093,478.878h0.417v3.586h2.21v0.361h-2.627V478.878z"/>
		<path style="fill:#FFFFFF;" d="M200.061,480.851c0-1.15,0.879-2.007,2.075-2.007c1.184,0,2.069,0.851,2.069,2.007
			c0,1.156-0.885,2.007-2.069,2.007C200.941,482.858,200.061,482.002,200.061,480.851z M203.788,480.851
			c0-0.942-0.705-1.635-1.652-1.635c-0.953,0-1.663,0.693-1.663,1.635c0,0.941,0.71,1.635,1.663,1.635
			C203.083,482.486,203.788,481.793,203.788,480.851z"/>
		<path style="fill:#FFFFFF;" d="M211.636,481.77h-2.199l-0.474,1.054h-0.434l1.804-3.947h0.412l1.804,3.947h-0.44L211.636,481.77z
			 M211.484,481.432l-0.947-2.12l-0.947,2.12H211.484z"/>
		<path style="fill:#FFFFFF;" d="M217.28,478.878h1.607c1.263,0,2.114,0.812,2.114,1.974c0,1.161-0.851,1.973-2.114,1.973h-1.607
			V478.878z M218.864,482.464c1.049,0,1.725-0.665,1.725-1.612c0-0.947-0.677-1.613-1.725-1.613h-1.167v3.225H218.864z"/>
		<path style="fill:#FFFFFF;" d="M234.041,481.77h-2.199l-0.474,1.054h-0.434l1.804-3.947h0.412l1.804,3.947h-0.44L234.041,481.77z
			 M233.889,481.432l-0.947-2.12l-0.947,2.12H233.889z"/>
		<path style="fill:#FFFFFF;" d="M239.685,478.878h0.417v3.586h2.21v0.361h-2.627V478.878z"/>
		<path style="fill:#FFFFFF;" d="M247.082,478.878h0.417v3.586h2.21v0.361h-2.627V478.878z"/>
		<path style="fill:#FFFFFF;" d="M260.449,479.239v1.551h2.041v0.361h-2.041v1.675h-0.417v-3.947h2.706v0.361H260.449z"/>
		<path style="fill:#FFFFFF;" d="M267.678,478.878h0.417v3.947h-0.417V478.878z"/>
		<path style="fill:#FFFFFF;" d="M273.456,478.878h0.417v3.586h2.21v0.361h-2.627V478.878z"/>
		<path style="fill:#FFFFFF;" d="M283.644,482.464v0.361h-2.791v-3.947h2.706v0.361h-2.289v1.404h2.041v0.355h-2.041v1.466H283.644z
			"/>
		<path style="fill:#FFFFFF;" d="M294.672,479.239v1.551h2.041v0.361h-2.041v1.675h-0.417v-3.947h2.706v0.361H294.672z"/>
		<path style="fill:#FFFFFF;" d="M301.5,480.851c0-1.15,0.879-2.007,2.075-2.007c1.184,0,2.069,0.851,2.069,2.007
			c0,1.156-0.885,2.007-2.069,2.007C302.379,482.858,301.5,482.002,301.5,480.851z M305.226,480.851
			c0-0.942-0.705-1.635-1.652-1.635c-0.953,0-1.663,0.693-1.663,1.635c0,0.941,0.71,1.635,1.663,1.635
			C304.522,482.486,305.226,481.793,305.226,480.851z"/>
		<path style="fill:#FFFFFF;" d="M313.351,482.825l-0.902-1.269c-0.102,0.011-0.203,0.017-0.316,0.017h-1.06v1.252h-0.417v-3.947
			h1.477c1.004,0,1.613,0.507,1.613,1.353c0,0.62-0.327,1.054-0.902,1.24l0.964,1.353H313.351z M313.328,480.231
			c0-0.632-0.417-0.992-1.207-0.992h-1.048v1.979h1.048C312.911,481.218,313.328,480.851,313.328,480.231z"/>
		<path style="fill:#FFFFFF;" d="M322.907,478.878v3.947h-0.4v-3.158l-1.551,2.656h-0.197l-1.551-2.639v3.14h-0.4v-3.947h0.344
			l1.714,2.926l1.697-2.926H322.907z"/>
		<path style="fill:#FFFFFF;" d="M330.744,481.77h-2.199l-0.473,1.054h-0.434l1.804-3.947h0.411l1.804,3.947h-0.44L330.744,481.77z
			 M330.592,481.432l-0.947-2.12l-0.947,2.12H330.592z"/>
		<path style="fill:#FFFFFF;" d="M336.957,479.239h-1.387v-0.361h3.192v0.361h-1.387v3.586h-0.417V479.239z"/>
		<path style="fill:#FFFFFF;" d="M343.063,482.346l0.164-0.321c0.282,0.276,0.784,0.479,1.302,0.479c0.739,0,1.06-0.31,1.06-0.699
			c0-1.083-2.43-0.417-2.43-1.877c0-0.581,0.451-1.083,1.455-1.083c0.446,0,0.908,0.13,1.224,0.35l-0.141,0.333
			c-0.338-0.22-0.733-0.327-1.083-0.327c-0.722,0-1.043,0.321-1.043,0.716c0,1.083,2.43,0.429,2.43,1.866
			c0,0.581-0.462,1.077-1.472,1.077C343.937,482.858,343.356,482.65,343.063,482.346z"/>
	</g>
</g>
<g>
</g>
<g>
	<path style="fill-rule:evenodd;clip-rule:evenodd;fill:#96C118;" d="M274.711,26.209c5.407,0.241,10.94-1.536,16.258-0.076
		c3.954-0.413,7.469,1.568,11.353,1.802c3.249,0.647,6.079,2.538,9.379,3.027c1.796,1.066,3.63,2.056,5.686,2.551
		c5.895,4.328,12.336,8.079,17.438,13.434c2.164,1.491,4.321,3.344,5.635,5.654c3.484,3.141,6.219,6.987,9.068,10.68
		c1.523,2.113,3.306,4.074,4.429,6.454c1.802,3.763,4.842,6.942,6.054,10.997c0.514,0.559,1.034,1.111,1.561,1.663
		c0.089,1.656,0.965,3.052,1.936,4.341c0.749,2.932,2.786,5.337,3.389,8.332c1.675,3.713,3.598,7.476,3.877,11.619
		c0.279,0.19,0.825,0.558,1.098,0.742c0.413,1.2,0.616,2.45,0.717,3.713c1.358,2.811,2.342,5.946,2.437,9.081
		c0.393,0.374,0.793,0.755,1.199,1.129c0.057,1.422-0.102,2.919,0.622,4.214c0.083,1.206,0.108,2.411,0.133,3.617
		c-0.292-0.044-0.882-0.133-1.174-0.178c-0.33-1.752-0.73-3.49-1.003-5.254c-0.622-1.352-1.491-2.577-2.164-3.896
		c-0.343-3.472-2.862-6.111-3.547-9.468c-0.4-1.434-1.346-2.608-2.158-3.82c-0.628-3.376-3.281-5.826-4.493-8.967
		c-4.429-7.546-9.259-14.938-15.097-21.475c-3.553-4.017-7.602-7.57-11.321-11.429c-1.155-1.327-3.008-1.695-4.125-3.065
		c-2.183-2.12-5.134-3.186-7.298-5.299c-2.329-0.648-4.049-2.507-6.308-3.345c-0.336-0.038-1.009-0.114-1.346-0.152
		c-0.552-0.59-1.104-1.168-1.662-1.739c-3.617-0.057-6.105-3.44-9.754-3.332c-1.053-0.482-2.126-0.927-3.192-1.384
		c-0.977-0.362-2.012-0.482-3.027-0.634c-1.491-0.388-3.059-0.362-4.512-0.876c-0.66-0.095-1.314-0.19-1.961-0.279
		c-1.206-0.578-2.564-0.501-3.852-0.597c-2.386-0.996-5.045-0.4-7.552-0.546c-2.297,0.159-4.778-0.463-6.923,0.596
		c-2.849-0.013-5.781,0.457-8.561-0.343c-1.599-0.438-3.313-0.171-4.867-0.78c-1.275-0.121-2.595-0.133-3.776-0.679
		c-2.97-0.133-5.851-1.034-8.84-0.837c-1.047-0.756-2.348-0.533-3.541-0.527c0-0.806,0.006-1.612,0.013-2.418
		c2.177-0.051,3.579-1.879,5.064-3.224c0.413-0.019,1.25-0.063,1.663-0.089c0.609-0.597,1.218-1.18,1.84-1.764
		c1.422-0.222,2.824-0.616,4.112-1.263c2.926-1.561,6.143-2.456,9.157-3.82c2.558-0.781,5.236-0.92,7.894-0.882
		C274.68,27.117,274.698,26.514,274.711,26.209z"/>
	<path style="fill-rule:evenodd;clip-rule:evenodd;fill:#E42D09;" d="M228.722,46.675c2.151-0.019,4.302-0.12,6.39-0.679
		c3.395-0.279,6.816-0.19,10.224-0.114c2.729,1.332,5.959,0.057,8.789,1.111c0.844,0.184,1.796,0.159,2.488,0.774
		c1.269,0.095,2.576,0.07,3.801,0.495c1.06,0.431,2.145,0.812,3.287,1.009c1.733,0.78,3.516,1.479,5.407,1.783l-0.032,0.463
		c0.996,0.171,1.967,0.495,2.913,0.882c0.565,0.374,1.149,0.717,1.752,1.034c1.612,0.514,3.439,0.977,4.499,2.399
		c0.597,0.234,1.193,0.476,1.79,0.723c0.514,0.304,1.028,0.609,1.549,0.92c0.857,0.667,1.821,1.174,2.805,1.631
		c0.317,0.216,0.958,0.635,1.276,0.844l-0.089,0.444c0.368,0.133,1.098,0.406,1.466,0.539c0.825,0.666,1.644,1.333,2.475,1.999
		c1.028,0.787,2.056,1.58,3.18,2.246c-0.032,0.247-0.102,0.742-0.134,0.99c0.419,0,1.263,0.007,1.682,0.013
		c0.99,1.301,2.037,2.589,3.382,3.554c2.075,1.472,3.611,3.535,5.616,5.096c0.045,0.374,0.127,1.129,0.171,1.51
		c0.254-0.013,0.755-0.038,1.009-0.051c1.072,2.043,3.262,3.186,4.22,5.299c0.235-0.032,0.704-0.102,0.945-0.133
		c0.032,0.399,0.108,1.193,0.146,1.592c0.603,0.508,1.18,1.054,1.72,1.631c0.622,1.237,1.828,2.107,2.227,3.471
		c0.527,0.533,1.072,1.066,1.618,1.599c0.26,0.577,0.527,1.155,0.793,1.732c0.946,0.984,1.739,2.094,2.322,3.332
		c0.711,1.193,1.479,2.361,2.215,3.548c0.146,0.33,0.444,0.99,0.59,1.32c0.45,0.603,0.901,1.225,1.314,1.866
		c0.622,0.799,1.047,1.726,1.161,2.741l0.419,0.044c0.508,1.701,1.789,3.04,2.234,4.766c0.546,0.945,1.079,1.904,1.612,2.862
		c0.349,0.736,0.711,1.472,0.838,2.291c0.349,0.565,0.698,1.123,1.053,1.688c0.172,0.768,0.489,1.498,0.895,2.177
		c0.552,1.225,0.654,2.678,1.758,3.585c-0.013,0.4-0.045,1.199-0.057,1.599l0.609,0.076c0.349,1.358,0.723,2.71,1.161,4.049
		c0.197,0.298,0.584,0.895,0.781,1.193c0.063,0.698,0.222,1.377,0.476,2.037c1.003,1.783,1.085,3.915,2.107,5.68
		c0,0.178,0.007,0.546,0.013,0.723c0.819,1.333,1.034,2.919,1.447,4.41c0.235,0.641,0.432,1.295,0.59,1.961
		c0.235,0.831,0.451,1.669,0.654,2.52c0.964,2.646,1.46,5.432,1.866,8.211c0.679,0.92,0.521,2.107,0.654,3.173
		c0.146,0.387,0.425,1.155,0.571,1.536c2.062,1.028,4.417,0.52,6.631,0.736c1.352,0.78,2.945,0.533,4.436,0.628
		c0.68,0.686,1.657,0.514,2.526,0.565c2.329,0.019,4.658-0.007,6.981,0.133c1.809,0.869,3.941,0.038,5.705,0.996
		c3.129,0.431,6.473-0.476,9.462,0.692c1.472,0.114,3.033-0.057,4.404,0.628c3.249,0.406,6.714-0.463,9.817,0.762
		c0.501,0.336,1.06,0.495,1.675,0.476c3.814,0.101,7.628,0.057,11.442,0.222l0.508,0.463c4.88,2.037,10.35,0.559,15.414,1.695
		c3.935,0.92,7.99,0.596,11.968,1.047c4.182,0.907,8.491,0.33,12.717,0.895c4.118,0.673,8.427,1.656,12.571,0.882l0.184-0.064
		c1.237,0.127,2.5,0.197,3.756,0.044c-0.406,0.387-0.819,0.768-1.206,1.161c5.426,0.07,10.864,0.159,16.22,1.079
		c-3.782,0.692-7.653,0.305-11.467,0.324l-0.133,0.596c-3.478-0.133-6.955,0.019-10.433-0.089c-1.174-0.673-2.57-0.628-3.737,0.007
		c-2.773,0.038-5.546,0.082-8.32-0.013l-0.521-0.197c-0.342-0.07-1.022-0.203-1.364-0.273c-29.197,0.108-58.401,0.007-87.599,0.044
		c-4.232-0.083-8.472,0.177-12.692-0.152c-1.238-3.611-2.919-7.133-3.37-10.953c-0.469-0.672-0.946-1.339-1.402-2.011
		c-0.406-0.616-0.806-1.225-1.206-1.834c0-0.4,0-1.199-0.006-1.599c-0.387-0.445-0.774-0.889-1.149-1.339
		c-0.121-1.218-0.622-2.342-1.244-3.376c-0.387-1.212-0.92-2.367-1.574-3.452c-0.806-1.878-1.568-3.77-2.602-5.527
		c-0.146-0.336-0.425-1.009-0.565-1.352c-0.482-1.092-0.895-2.208-1.257-3.338l-0.425-0.038c-0.273-0.647-0.546-1.294-0.819-1.936
		c-0.685-1.453-1.688-2.792-1.954-4.41l-0.539,0.051l0.095-0.717l-0.749-0.025c0-0.394,0.012-1.187,0.012-1.587
		c-0.768-0.609-1.307-1.421-1.745-2.284c-0.26-0.565-0.521-1.123-0.787-1.682c-0.996-1.377-1.846-2.843-2.602-4.366
		c-0.343-0.514-0.685-1.022-1.028-1.529c-0.298-0.552-0.59-1.098-0.882-1.65c-0.438-0.635-0.869-1.276-1.288-1.916
		c-1.256-1.917-2.322-3.954-3.801-5.718c-0.914-1.441-1.897-2.83-2.906-4.201c-0.622-0.863-1.333-1.662-1.942-2.525
		c-0.603-0.87-1.276-1.682-1.916-2.513c-2.316-2.983-4.848-5.8-7.457-8.529c-0.838-1.009-1.441-2.241-2.627-2.894
		c-2.113-2.545-4.981-4.322-7.329-6.65c-3.129-2.583-6.365-5.051-9.773-7.266c-0.685-0.647-1.523-1.041-2.399-1.339
		c-0.552-0.609-1.167-1.136-2.018-1.168c-0.222-0.172-0.673-0.52-0.895-0.692l0.057-0.381c-0.736-0.076-1.434-0.273-2.094-0.584
		c-0.673-0.368-1.371-0.698-2.075-0.984c-0.381-0.14-1.136-0.419-1.51-0.559l-0.063-0.463c-0.952,0-1.859-0.228-2.691-0.685
		l0.159-0.527c-0.92-0.082-1.879-0.107-2.684-0.603c-3.23-1.568-6.968-1.682-10.23-3.173c-1.51-0.203-3.033-0.14-4.544-0.267
		c-1.834-0.698-3.858-0.438-5.705-1.091c-1.148,0.165-2.272,0.483-3.401,0.704l-0.108-0.724c-1.244,0.026-2.482,0.019-3.719-0.019
		l-0.108,0.609c-3.922-0.419-7.723,0.768-11.632,0.73c-0.622,0.349-1.282,0.577-1.986,0.692c-1.022,0.374-2.1,0.501-3.173,0.615
		c-0.711,0.565-1.663,0.476-2.5,0.647c-0.964,0.514-2.068,0.521-3.122,0.654c-1.199,0.679-2.513,1.098-3.871,1.282
		c-0.609,0.304-1.244,0.514-1.91,0.641c-0.355,0.101-1.06,0.311-1.415,0.412c-10.515,2.805-20.193,8.37-28.144,15.769
		c-2.215,2.868-5.654,4.639-7.164,8.059c-1.066,1.669-2.583,2.989-3.719,4.613c-0.634,0.907-1.269,1.808-1.872,2.735l-0.349-0.026
		c-0.336,1.441-1.548,2.368-2.189,3.643c-0.425,0.653-0.812,1.402-1.631,1.605c-0.222,1.079-0.876,1.961-1.536,2.805
		c-0.723,1.003-1.358,2.056-1.904,3.167c-0.774,0.971-1.624,1.923-2.005,3.135c-1.206,0.45-1.206,1.897-1.688,2.9l-0.508-0.096
		c-0.267,1.955-2.183,3.027-2.761,4.88c-0.463,0.616-0.895,1.25-1.275,1.916c-0.33,0.527-0.666,1.047-1.003,1.574
		c-0.362,0.686-0.787,1.333-1.295,1.917c-0.374,1.345-1.352,2.348-2.139,3.459c-0.324,0.546-0.66,1.085-0.996,1.624
		c-0.711,1.053-1.365,2.139-1.993,3.243c-0.102-1.358-0.146-2.71-0.171-4.068h0.622c0.083-1.301,0.419-2.557,0.806-3.789
		l0.521-0.013c0.051-0.946,0.152-1.891,0.463-2.792c0.235-0.609,0.47-1.212,0.711-1.821c0.19-0.635,0.393-1.263,0.622-1.891
		c0.92-1.377,1.066-3.097,1.967-4.486c0.26-2.304,2.31-4.011,2.062-6.466c0.171,0.425,0.342,0.85,0.52,1.282
		c0.038-1.2,0.4-2.342,0.762-3.471l0.457-0.038c0.171-0.838,0.457-1.644,0.799-2.418c0.559-0.831,1.009-1.732,1.32-2.678
		l0.412,0.025c0.051-1.948,1.733-3.198,2.158-5l0.381-0.038c0.438-1.022,0.965-2.011,1.561-2.957l0.368-0.381
		c2.005-2.221,3.281-5,5.273-7.247c4.563-6.784,10.376-12.635,16.633-17.864c9.113-7.742,20.072-12.921,31.209-17.052
		c3.947-1.618,8.18-2.36,12.209-3.731c1.231-0.438,2.557-0.425,3.852-0.476c0.349-0.375,0.704-0.755,1.06-1.13
		C227.11,47.208,227.935,47.049,228.722,46.675L228.722,46.675z M21.42,158.268c0.121,0.85,0.571,1.408,1.504,1.421
		c-0.025,0.241-0.076,0.723-0.101,0.965c1.072,0.114,2.126,0.368,3.129,0.78c0.501,0.394,1.009,0.787,1.516,1.174
		c0.362,0.032,1.092,0.095,1.46,0.127c2.475,0.85,5.166,1.085,7.774,1.326l0.013,0.546c5.514,0.73,10.985,2.1,16.588,1.91
		l-0.114,0.672c0.996,0,1.993,0.019,2.995,0.063c3.014,1.149,6.435-0.152,9.405,1.123c2.348,0.178,4.702,0.063,7.044,0.216
		c2.945,0.895,6.092,0.07,9.075,0.692c2.189,0.761,4.537,0.355,6.803,0.539c3.604,0.907,7.419,0.285,11.112,0.476
		c5.413-0.222,10.769,0.831,16.182,0.717c60.089,0.146,120.185,0.102,180.275,0.076c1.13,0.032,2.234,0.254,3.344,0.457
		c0.501-0.368,0.996-0.742,1.491-1.111l-0.349-0.603l-1.079-0.209l-0.051-0.425c-0.724-0.19-1.428-0.412-2.126-0.673
		c-0.964-0.083-1.923-0.133-2.887-0.171c-0.216-0.292-0.647-0.869-0.863-1.155c-1.181-0.025-2.367-0.044-3.548-0.038l-0.051-0.577
		c-0.965-0.083-1.929-0.178-2.811-0.584c-1.612-0.146-3.224-0.171-4.836-0.127c0.051-0.203,0.159-0.609,0.216-0.812
		c-0.267,0.044-0.8,0.127-1.066,0.165c-1.771-1.13-4.061-0.444-6.035-0.616l-0.064-0.641c-1.796,0.127-3.566-0.165-5.312-0.521
		c-2.43-0.203-4.874-0.133-7.311-0.19l-0.019-0.559c-0.806,0.038-1.548-0.14-2.228-0.546c-2.088-0.102-4.175-0.121-6.263-0.134
		c-1.961,0.051-3.947,0.07-5.863-0.4c-4.137-0.958-8.402-0.73-12.609-0.799c-1.859-0.063-4.004,0.317-5.439-1.174
		c-3.04-0.172-6.079-0.121-9.113-0.159c-5.743-0.133-11.6,0.52-17.217-0.946c-19.45-0.419-38.9-0.203-58.351-0.247
		c-40.817-0.006-81.64,0.019-122.457-0.012C22.747,158.287,21.864,158.274,21.42,158.268L21.42,158.268z M154.132,460.422
		c40.734-0.178,81.482-0.089,122.222,0.044c6.6,1.015,13.32,0.362,19.977,0.476l0.032,0.653c13.428-0.019,26.856-0.025,40.277,0.146
		c2.659,0.692,5.559,0.546,8.243-0.007c3.471,1.25,7.596-0.654,10.883,1.257l0.451-0.793c0.501,0.139,1.51,0.419,2.018,0.558
		c0.869-0.565,1.701-0.565,2.494-0.013c0.552,0.032,1.656,0.102,2.208,0.133l0.095-0.781c1.371,0.184,2.862,1.39,4.055,0.133
		c1.688,0.279,3.37,0.692,5.096,0.641c8.884-0.006,17.768,0.038,26.653,0.057c4.443,0.057,8.91-0.216,13.327,0.444
		c9.944-0.089,19.888,0.292,29.832,0.146c9.373,1.472,19-0.235,28.392,1.231c-0.032,0.285-0.102,0.869-0.133,1.155
		c-0.869,0.114-1.732,0.33-2.361,0.984c-1.015,0.349-2.208,0.241-3.046,0.984c-1.428,0.095-2.856,0.216-4.233,0.609
		c-0.933,0.12-1.91,0.082-2.735,0.565c-0.685,0.133-1.333,0.355-1.942,0.673c-2.088,0.241-4.309-0.267-6.263,0.666
		c-1.51,0.083-3.059,0.019-4.493,0.571c-4.144,0.159-8.294,0.241-12.444,0.228c0.026,0.279,0.082,0.838,0.108,1.111
		c-4.176,0.083-8.37-0.038-12.533,0.222l-0.514,0.647c-0.787-0.99-1.631-1.06-2.539-0.209c-2.335,0.089-4.677-0.032-7.005,0.196
		c-0.819,0.279-1.657,0.419-2.52,0.413c-7.945,0.019-15.89,0.133-23.835,0.114c-4.359,0.133-8.77-0.4-13.085,0.445
		c-2.487,0.412-5.019,0.241-7.526,0.254c-33.843,0.07-67.692,0.013-101.541,0.019c-2.976,0.241-5.895-0.412-8.84-0.711
		c-11.854-0.057-23.721,0.019-35.569-0.317c-6.346-0.057-12.698,0.177-19.037-0.209c-6.34-0.229-12.73,0.431-19.012-0.673
		c-17.337-0.07-34.687-0.279-52.03-0.159c-6.143-0.032-12.279,0.032-18.422-0.057l-0.514-0.489c-1.18-0.717-2.589-0.673-3.916-0.673
		c-10.89,0.133-21.779-0.21-32.669-0.057c-8.802,0.076-17.597-0.051-26.399-0.025c-1.643,0-3.249-0.4-4.867-0.584
		c0.032-0.285,0.101-0.863,0.133-1.149c0.927-0.432,1.885-0.768,2.875-0.99c1.339-0.412,2.748-0.425,4.138-0.368
		c-0.045-0.191-0.14-0.577-0.184-0.768c0.444,0.006,1.333,0.019,1.777,0.026c3.09-0.692,6.282-1.161,9.468-1.339
		c1.244-0.431,2.564-0.457,3.858-0.368c3.421,0.355,6.727-0.819,10.128-0.793c2.158-0.032,4.322-0.013,6.479-0.031
		c0.451-0.374,0.901-0.743,1.352-1.111c7.012-0.146,13.98-0.958,21.012-0.685l0.051-0.755c0.406,0.165,1.218,0.495,1.618,0.66
		c4.125-1.148,8.44-0.146,12.584-1.078c4.772-0.115,9.557-0.165,14.335-0.057l0.019-0.66c7.501,0.089,14.996-0.172,22.496-0.197
		C152.99,460.689,153.752,460.511,154.132,460.422z"/>
	<path style="fill-rule:evenodd;clip-rule:evenodd;fill:#FDC700;" d="M215.504,71.24c3.769-0.85,7.456-2.31,11.365-2.488
		c3.7-0.063,7.412-0.038,11.118,0.038c0.006,0.317,0.019,0.939,0.025,1.257c-4.284,3.084-7.698,7.177-11.48,10.832
		c-2.989,3.122-6.13,6.111-8.973,9.373c-3.465,4.874-7.691,9.145-11.315,13.885c-4.829,6.682-9.684,13.365-13.751,20.536
		c-3.896,6.206-6.486,13.079-9.513,19.704c-1.307,4.137-2.982,8.167-3.484,12.514c5.299,1.523,10.871,0.634,16.296,0.888
		c4.823,0.635,9.716,0.19,14.539,0.889c5.73,0.546,11.493-0.007,17.229,0.222c-2.119,0.133-4.321-0.146-6.352,0.603
		c-5.743-0.133-11.6,0.52-17.217-0.946c-19.45-0.419-38.901-0.203-58.351-0.247c-40.817-0.007-81.64,0.019-122.457-0.012
		l-0.704-0.495c50.158-0.26,100.329,0.038,150.493-0.158c0.673-0.318,1.358-0.622,2.05-0.914c-0.419-3.503,1.155-6.676,1.568-10.077
		c0.641-1.669,1.187-3.382,1.155-5.198c1.364-2.564,1.745-5.514,2.57-8.281c1.72-4.842,3.154-9.792,5.134-14.532
		c0.552-1.022,1.034-2.088,1.275-3.224c1.035-3.389,2.532-6.606,4.284-9.671c1.472-2.608,2.196-5.641,4.258-7.882
		c0.083-0.349,0.248-1.047,0.33-1.396c4.455-7.736,9.1-15.389,14.627-22.426C211.557,72.478,213.397,71.272,215.504,71.24z"/>
	<path style="fill-rule:evenodd;clip-rule:evenodd;fill:#0077BD;" d="M31.859,188.113c16.766,0.07,33.538-0.101,50.304,0.089
		c1.917,1.129,4.296,0.197,6.403,0.622c2.691,0.59,5.521,0.228,8.161,1.079c2.678,0.342,5.115,1.593,7.755,2.107
		c2.405,1.396,5.007,2.526,7.088,4.41c3.478,3.351,6.981,6.923,8.789,11.499c1.676,4.322,2.697,8.891,3.345,13.46
		c-0.14,4.049,0.787,8.053,0.127,12.076c0.216,6.035,0,12.349-3.008,17.762c-1.954,2.691-4.512,4.868-7.38,6.543
		c-1.079,0.349-2.164,0.679-3.249,0.996c-1.111,0.698-2.374,1.034-3.662,1.186c-0.482,0.387-0.971,0.774-1.453,1.168
		c-0.317,0.05-0.965,0.158-1.282,0.21c0.838,1.167,2.335,0.825,3.573,0.933c0.273,0.381,0.539,0.768,0.806,1.161
		c1.028,0.026,2.05,0.057,3.078,0.089c-0.019,0.298-0.057,0.888-0.07,1.18c0.774,0.031,1.548,0.064,2.329,0.095
		c0.057,1.301,1.295,1.219,2.234,1.415c-0.025,0.254-0.076,0.755-0.102,1.009c0.717,0.051,1.434,0.102,2.151,0.159
		c2.253,2.164,4.354,4.493,5.845,7.266c0.222,1.149,0.679,2.24,1.32,3.217c0.082,1.034,0.159,2.075,0.254,3.122
		c1.314,1.859,1.32,4.233,1.586,6.409c0.14,5.547,0.095,11.099,0.076,16.652c0.546-0.723,1.111-1.428,1.764-2.056
		c0.133-2.113,0.095-4.232,0.26-6.346c0.152-2.151,1.104-4.163,1.136-6.32c0.057-1.694,0.064-3.382,0.21-5.064
		c1.364-4.347,0.863-9.005,2.266-13.333c0.171-3.122,0.038-6.295,1.149-9.278c0.412-3.668,0.285-7.475,1.428-11.035
		c0.178-2.259,0.051-4.531,0.393-6.771c1.244-6.809,2.126-13.656,3.008-20.51c0.876-3.554,0.514-7.342,1.586-10.896
		c0.26-5.934,1.777-11.702,2.189-17.629c0.869-2.138,0.229-4.575,1.225-6.701c19.812,0.095,39.63-0.032,59.442,0.064
		c0.292,2.602,0.476,5.267,1.206,7.793c0.235,2.17,0.571,4.322,0.907,6.473c0.787,3.078,0.685,6.327,1.295,9.449
		c0.73,2.691,0.768,5.521,1.269,8.262c0.806,2.849,0.787,5.895,1.269,8.821c0.831,2.875,0.742,5.959,1.275,8.916
		c0.85,2.824,0.812,5.87,1.301,8.789c1.237,5.438,1.612,11.036,2.551,16.531c0.685,2.71,0.907,5.527,1.212,8.301
		c1.022,3.807,0.711,7.875,1.695,11.708c0.12,0.812,0.171,1.644,0.159,2.481c-0.615-0.628-1.238-1.269-1.618-2.069
		c-2.43-4.582-5.248-8.961-7.603-13.58c-7.494-0.045-14.983-0.044-22.471,0c0.019,0.685,0.051,1.377,0.089,2.075
		c1.117,1.022,1.542,2.532,2.266,3.826c0.197,0.901-0.019,2.158,1.161,2.437c1.003,2.011,1.827,4.099,1.86,6.384
		c0.063-0.47,0.203-1.415,0.273-1.885c0.711,1.745,1.523,3.458,2.557,5.038c-0.032,2.634-2.05,4.563-3.319,6.702
		c-2.012,3.509-4.131,6.961-6.441,10.293c-0.203-0.007-0.603-0.013-0.8-0.013c-0.926-1.46-2.005-2.811-2.913-4.277
		c-0.457-1.396-1.853-0.533-2.704-0.159c0.419,3.192,3.364,5.064,4.499,7.939c2.05,0.457,4.169,0.229,6.257,0.279
		c6.143-0.057,12.292,0.057,18.441-0.051c1.022,0.146,1.593-0.711,2.031-1.479c2.684-5.267,5.673-10.382,8.599-15.528
		c0.248-0.064,0.742-0.197,0.99-0.26c0.609,5.451,1.333,10.883,2.431,16.258c0.647,2.786,0.806,5.635,0.958,8.478
		c0.939,2.678,0.939,5.547,1.339,8.326c0.749,2.849,1.129,5.775,1.149,8.726c0.362,0.838,0.704,1.688,1.047,2.545
		c0.013,1.593,0.07,3.198,0.438,4.759c0.641-2.824,0.324-5.756,0.819-8.605c0.076-36.184,0-72.368,0.032-108.553
		c0.083-11.721-0.178-23.448,0.127-35.169c11.308,0.044,22.617-0.044,33.925,0.044c0.368,0.933,0.882,1.802,1.485,2.608
		c0.064,0.711,0.127,1.428,0.19,2.145c1.009,1.624,1.345,3.497,1.403,5.381c1.402,1.003,1.111,2.786,1.199,4.29
		c0.261,0.006,0.781,0.012,1.047,0.019c0.025,1.504,0.102,3.059,1.187,4.226c0.197,1.536,0.355,3.129,1.326,4.417
		c0.121,1.326,0.355,2.672,1.256,3.719c-0.031,2.43,1.739,4.36,1.65,6.803c0.673,0.774,0.99,1.739,1.225,2.729
		c1.827,5.331,3.522,10.75,5.032,16.131c0.349,0.571,0.704,1.142,1.066,1.713c0.07,1.136,0.152,2.272,0.285,3.402
		c1.212,2.291,2.672,4.715,2.278,7.418c0.064-0.444,0.19-1.333,0.254-1.777c0.394,0.66,0.869,1.282,1.46,1.796
		c0.121,0.755,0.114,1.593,0.768,2.139c0.222-22.116,0-44.237,0.114-66.353c0.349-0.216,1.047-0.66,1.396-0.876
		c10.598,0.127,21.202-0.07,31.8,0.095c0.539,0.247,1.098,0.495,1.656,0.723c-0.146,52.601-0.031,105.209-0.051,157.81
		c-10.452,0.063-20.897,0.032-31.342,0.032c-1.72-0.032-3.452,0.114-5.147-0.197c-0.628-1.605-0.863-3.325-1.123-5.013
		c-1.32-1.732-0.8-4.137-2.215-5.819c-0.305-2.862-1.092-5.781-2.526-8.275c0.019-1.643-0.514-3.154-1.218-4.607
		c-0.044-2.221-1.326-4.093-1.593-6.257c-1.434-3.643-2.037-7.546-3.547-11.15c-0.882-3.725-2.158-7.329-3.122-11.042
		c-1.041-1.954-0.679-4.309-1.884-6.213c-0.254-2.278-1.771-4.188-1.625-6.53c-0.298-0.247-0.889-0.736-1.187-0.984
		c0.051-0.47,0.152-1.415,0.203-1.891c-0.355,0.006-1.073,0.019-1.434,0.026c0.114,22.635,0.082,45.271,0.013,67.907
		c-25.561,0.076-51.129,0.076-76.697,0c0.127-4.353-0.85-8.611-0.73-12.958c-0.888-4.988-0.571-10.134-1.758-15.065
		c-4.696,0.025-9.398,0-14.101,0c-0.082,2.037,0.235,4.175-0.539,6.117c0.013,4.284-0.857,8.478-0.869,12.756
		c-0.558,2.075-0.247,4.309-0.984,6.333c-0.12,1.098-0.203,2.208-0.273,3.319c-13.79,0.025-27.586,0.057-41.375-0.038
		c-0.489-0.552-0.977-1.085-1.472-1.625c0.927-3.186,1.174-6.498,1.955-9.709c-0.622,0.026-1.244,0.057-1.859,0.096
		c-1.371,2.075-3.154,3.852-5.121,5.362c-3.04,2.202-6.739,3.078-10.287,4.08c-3.294,0.285-6.612,0.07-9.906,0.285
		c-1.485,0.279-2.83,1.174-4.385,1.06c-20.155,0.051-40.309,0.032-60.464,0.032c-0.184-0.4-0.552-1.206-0.736-1.612
		c-0.019-31.501,0.019-63.009-0.019-94.51c0.025-0.876,0.127-1.739,0.305-2.589c-0.482-2.285-0.266-4.632-0.285-6.942
		c-0.019-16.518,0.019-33.03-0.025-49.549C31.11,190.353,31.542,189.236,31.859,188.113L31.859,188.113z M72.365,215.381
		c-0.108,11.632-0.007,23.271-0.038,34.909c2.646,0.019,5.311,0.21,7.951-0.095c2.012-0.571,3.642-2.158,4.397-4.093
		c1.308-7.292,0.984-14.76,0.844-22.141c-0.565-3.008-1.967-5.794-4.233-7.881c-1.396-0.007-2.811-0.07-4.138-0.565
		C75.557,215.394,73.958,215.381,72.365,215.381L72.365,215.381z M165.447,236.399c0.133,1.91,1.18,3.516,2.227,5.052
		c2.348,4.163,4.753,8.288,7.209,12.381c0.628,1.422,1.903,2.672,1.688,4.347c0.197,2.538-2.253,4.061-2.932,6.34
		c-2.335,3.103-3.554,6.942-6.264,9.773c0.482,0.374,1.015,0.723,1.663,0.666c2.792,0.102,5.591,0.045,8.389,0.007
		c1.98-2.456,3.446-5.267,5.502-7.666c3.858-0.102,7.736,0.178,11.581-0.127c2.335-2.773,3.782-6.213,5.959-9.119
		c-0.025-0.381-0.076-1.142-0.101-1.523c-3.782-6.485-6.993-13.333-10.299-20.072C181.864,236.316,173.652,236.437,165.447,236.399
		L165.447,236.399z M148.561,268.75c0.006,0.349,0.025,1.047,0.031,1.396c1.441,2.506,2.786,5.077,3.998,7.698
		c0.901,1.498,1.955,2.926,2.482,4.62c0.876,1.618,1.701,3.268,2.773,4.772c0.248,0.692,0.502,1.384,0.755,2.082
		c-0.342,0.787-0.685,1.58-1.053,2.361c-3.084,4.607-5.483,9.627-8.51,14.266c-0.577,0.787-0.501,1.789-0.622,2.71
		c7.33-0.044,14.666,0.064,22.001-0.038c2.76,0.019,2.303-3.852,4.512-4.867c0.076-0.603,0.159-1.206,0.241-1.802
		c2.824-4.201,4.988-8.834,7.488-13.237c-1.51-1.238-1.834-3.306-2.792-4.918c-1.282-2.259-2.221-4.715-3.706-6.847
		c-3.573-0.273-7.291,0.495-10.775-0.362c-1.637-2.646-3.071-5.438-5.07-7.844C156.398,268.706,152.476,268.744,148.561,268.75
		L148.561,268.75z M72.308,277.882c0.044,13.86-0.006,27.719,0.032,41.579c1.745,0.006,3.541,0.184,5.223-0.393
		c1.992-0.761,4.372-0.812,5.908-2.469c1.733-1.624,1.675-4.182,2.037-6.352c0.425-8.878,0.19-17.768,0.07-26.647
		c0.101-2.748-1.231-5.432-3.364-7.133c-2.773-0.33-5.515-1.123-8.338-0.876C72.41,275.217,72.188,276.867,72.308,277.882
		L72.308,277.882z M328.391,188.183c13.542-0.146,27.084-0.013,40.626-0.076c1.498-0.076,2.913,0.52,4.404,0.59
		c3.604,0.165,7.247-0.197,10.826,0.4c2.507,0.451,5.185-0.248,7.59,0.781c2.323,0.197,4.734,0.292,6.905,1.25
		c0.933,0.349,1.884,0.654,2.856,0.92c0.964,0.571,1.954,1.104,2.989,1.574c6.251,3.915,11.238,10.407,12.514,17.75
		c0.317,0.571,0.647,1.149,0.977,1.732c0.451,2.97,0.901,5.946,1.377,8.916c0.146,6.13,0.102,12.26,0.038,18.39
		c-0.063,1.701,0.07,3.465-0.514,5.102c-0.209,0.85-0.406,1.707-0.616,2.564c-0.514,2.583-1.079,5.28-2.462,7.552
		c-1.015,1.884-2.672,3.243-4.41,4.429c-0.666,0.749-1.663,0.901-2.57,1.193c-3.426,1.351-6.987,2.583-10.718,2.551
		c0.939,0.33,1.859,0.698,2.773,1.123c0.222,1.783,2.43,0.888,3.63,1.282c1.929,1.948,4.905,2.132,7.006,3.89
		c2.786,3.242,5.876,6.593,6.854,10.909c0.578,1.853,1.13,3.738,1.015,5.711c0.114,19.996,0.063,39.998,0.032,60.001
		c-12.685,0.007-25.377,0.152-38.063-0.07c-0.045-17.432,0.006-34.858-0.025-52.284c-0.152-4.918,0.089-9.963-1.428-14.71
		c-0.679-1.421-1.891-2.43-3.148-3.312c-2.627-0.463-5.331-1.174-7.989-0.495c-0.387,8.694-0.057,17.432-0.165,26.139
		c-0.006,14.913,0.007,29.819,0,44.732c-13.25,0.07-26.494,0.032-39.738,0.019c-0.501-0.292-0.984-0.559-1.479-0.832
		c0.191-52.1-0.025-104.2,0.108-156.3C327.788,189.249,328.188,188.538,328.391,188.183L328.391,188.183z M369.221,215.908
		c-0.038,11.493-0.019,22.979-0.013,34.471c3.141,0.038,6.581,0.235,9.272-1.675c2.227-2.126,2.43-5.451,2.468-8.339
		c0.793-5.229,0.558-10.547,0.254-15.801c-0.273-1.073-0.4-2.17-0.47-3.262c-0.857-2.456-2.868-4.404-5.331-5.191
		C373.352,215.8,371.277,215.914,369.221,215.908L369.221,215.908z M429.666,188.233c3.769-1.237,7.78-0.45,11.67-0.672
		c3.598,0.146,7.196,0.082,10.788,0.4c4.188-0.641,8.44-0.444,12.647-0.184c2.443-0.457,4.88,0.025,7.311,0.336
		c-0.057,52.779,0.006,105.558-0.038,158.331c-0.114,0.406-0.342,1.218-0.457,1.618c-11.562-0.184-23.125-0.038-34.687-0.082
		c-2.354-0.064-4.728,0.178-7.057-0.203c-0.368-8.897-0.051-17.826-0.152-26.735C429.679,276.772,429.71,232.502,429.666,188.233
		L429.666,188.233z M118.265,352.954c6.289-2.24,13.383-2.145,19.717-0.064c0.965,0.196,1.948,0.266,2.926,0.393
		c0.749,0.622,1.618,1.066,2.551,1.364c3.002,1.441,5.724,3.408,7.913,5.934c0.736,1.263,1.516,2.5,2.418,3.661
		c1.307,1.155,0.996,3.16,2.062,4.512c0.108,1.758,0.412,3.509,1.225,5.096c0.413,15.808,0.127,31.628,0.184,47.448
		c0.203,4.201-0.615,8.345-1.377,12.463c-0.158,0.768-0.647,1.409-1.041,2.075c-0.032,0.393-0.089,1.174-0.114,1.568
		c-2.094,3.128-4.119,6.352-7.19,8.637c-0.749,0.451-1.498,0.914-2.24,1.383c-3.547,2.094-7.558,3.363-11.702,3.433
		c-4.245,0.038-8.504,0.14-12.743-0.133c-2.449-0.121-4.575-1.428-6.911-1.993c-1.878-0.901-3.808-1.783-5.273-3.3
		c-2.094-2.101-4.487-4.049-5.8-6.771c-0.558-1.136-1.104-2.284-1.783-3.351c-0.616-3.402-0.965-6.841-1.466-10.255
		c-0.089-15.846-0.089-31.685-0.013-47.531c0.451-3.325,1.034-6.632,1.46-9.963c0.825-0.869,1.199-1.967,1.314-3.135
		c1.98-2.303,3.357-5.197,5.94-6.942c2.285-1.828,5.064-2.792,7.577-4.22C116.685,353.151,117.478,353.049,118.265,352.954
		L118.265,352.954z M125.163,369.136c-0.057,0.711-0.114,1.434-0.171,2.158c-0.362,0.362-0.717,0.723-1.072,1.091
		c-0.102,18.213,0.019,36.419-0.063,54.632c0.025,2.748,0.666,5.565,2.234,7.863c1.32,0.025,2.633,0.051,3.96,0.083
		c2.221-1.828,1.764-4.791,2.399-7.298c0.114-17.356-0.013-34.719,0.07-52.074c0.051-2.208-0.819-4.277-1.345-6.384
		c-0.267-0.228-0.799-0.685-1.066-0.914C128.412,368.216,126.604,368.051,125.163,369.136L125.163,369.136z M40.832,360.906
		c4.011-5.134,10.42-7.558,16.576-8.986c4.442-0.248,8.903-0.247,13.346-0.064c2.272,1.339,5.07,0.85,7.336,2.189
		c2.811,1.358,5.984,2.43,7.958,5.001c2.259,1.555,4.023,3.941,4.963,6.524c1.358,1.764,0.723,4.125,1.701,6.048
		c1.206,2.671-0.038,5.717,0.996,8.434c-0.749,2.659-0.26,5.477-0.292,8.211c0.857,2.342-0.527,4.836-0.133,7.298
		c-8.059,0.032-16.119,0-24.178,0.012c0.298-3.306-0.742-6.581-0.197-9.861c0.172-4.664-0.451-9.284-0.349-13.948
		c0.076-1.783-1.498-2.919-2.596-4.068c-2.367-0.247-5.026,0.8-5.616,3.326c-0.165,2.595-0.273,5.191-0.577,7.773
		c-0.019,15.23,0.012,30.454-0.013,45.684c0.254,2.887,0.577,5.775,0.635,8.681c1.485,2.399,4.398,1.802,6.777,1.682
		c2.075-3.097,1.085-6.86,1.65-10.318c0.241-1.085,0.057-2.177-0.089-3.243c-0.469-3.287,0.584-6.53,0.368-9.823
		c3.865-0.819,7.907,0.704,11.778-0.463c4.074,1.034,8.338-0.558,12.444,0.533c0,5.8,0.114,11.606-0.146,17.4
		c-0.717,3.82-1.244,7.901-3.63,11.106c-2.97,4.398-7.685,7.082-12.324,9.385c-3.059,1.326-6.403,1.256-9.614,1.904
		c-3.11,0.095-6.276,0.311-9.329-0.412c-2.266-0.247-4.683-0.286-6.587-1.713c-5.66-0.844-10.109-5.077-13.428-9.481
		c-0.216-1.333-0.673-2.596-1.346-3.763c-0.083-1.777-0.533-3.503-1.301-5.102c-0.374-19.26-0.165-38.532-0.127-57.792
		c-0.324-2.297,1.377-4.138,1.434-6.378C38.192,364.732,39.1,362.517,40.832,360.906L40.832,360.906z M435.612,353.005
		c1.98,0.006,3.687-1.32,5.686-1.218c3.192-0.032,6.384-0.089,9.576,0.031c5.654,0.812,11.556,2.018,16.068,5.775
		c2.317,1.624,3.896,4.055,5.109,6.574c-0.146,2.43,1.314,4.556,1.333,6.955c0.07,3.738,0.006,7.476,0.032,11.213
		c-7.659,0.127-15.325,0.07-22.985,0.051c-0.247-4.391,0.609-8.922-0.692-13.193c-0.311-0.21-0.933-0.622-1.243-0.825
		c-0.419-0.019-1.263-0.051-1.688-0.07c-0.082-0.318-0.248-0.952-0.336-1.269c-0.133,0.273-0.394,0.825-0.527,1.098
		c-2.208,0.146-3.421,2.259-3.554,4.264c-0.196,2.545-0.222,5.115,0.095,7.653c0.305,2.132,1.878,3.719,3.35,5.159
		c1.511,1.523,3.776,2.037,5.077,3.814c0.311,0.064,0.926,0.197,1.238,0.267c3.953,2.608,8.027,5.058,11.721,8.046
		c1.644,1.016,2.837,2.628,4.556,3.541c3.852,3.687,5.971,8.802,6.638,14.031c1.123,6.714,1.396,13.726-0.292,20.37
		c-0.482,1.58,0.495,4.017-1.295,4.918c-0.641,1.237-1.51,2.336-2.576,3.237c-0.076,0.355-0.222,1.072-0.298,1.428
		c-0.361,0.051-1.085,0.159-1.447,0.209c-1.65,1.447-3.509,2.659-5.591,3.376c-0.977,0.508-1.986,0.952-3.027,1.294
		c-1.885,0.635-3.839,0.99-5.806,1.18c-4.125,1.149-8.573,0.482-12.812,0.343c-1.225-0.413-2.494-0.628-3.751-0.876
		c-1.872-0.165-3.548-1.009-5.248-1.707c-1.878-1.066-4.099-1.504-5.534-3.256c-3.224-2.284-5.267-5.711-6.53-9.379
		c-0.12-1.821-0.419-3.642-1.206-5.299c-0.273-5.165-0.152-10.337-0.14-15.509c3.896-0.197,7.844,0.298,11.702-0.501
		c0.882-0.108,1.726,0.044,2.544,0.47c2.843-0.965,5.718-0.108,8.599,0c0.356,0.933,0.571,1.916,0.527,2.932
		c0.019,4.169-0.089,8.345,0.013,12.521c-0.013,0.971,0.412,1.859,0.768,2.754c0.47,0.501,0.939,1.015,1.409,1.536
		c1.358,0,2.716,0.007,4.087,0.032c2.374-1.91,2.824-5.096,2.722-7.958c-0.076-3.782,0.013-8.085-2.672-11.073
		c-1.872-1.98-4.328-3.262-6.479-4.899c-3.42-2.773-7.463-4.664-10.794-7.552c-4.766-2.754-9.081-6.765-11.036-12.019
		c-0.457-1.929-1.688-3.649-1.478-5.705c-0.615-4.601-1.18-9.423-0.095-13.986c0.305-1.993-0.412-4.417,1.25-5.946
		c0.07-0.781,0.146-1.554,0.229-2.329c2.691-4.233,6.517-8.212,11.568-9.373C433.194,353.189,434.419,353.037,435.612,353.005
		L435.612,353.005z M162.591,353.234c8.313-0.127,16.633-0.019,24.952-0.057c2.608,0.025,5.305-0.285,7.793,0.704
		c0.064,1.295,0.159,2.583,0.279,3.884c0.863,4.036,1.13,8.186,2.107,12.203c0.381,3.065,0.121,6.194,0.895,9.221
		c0.596,2.126,0.755,4.322,0.85,6.524c0.489,3.44,1.434,6.828,1.256,10.337c0.229,0.013,0.685,0.032,0.914,0.045
		c-0.197-4.169,1.485-8.116,1.453-12.267c0.006-1.701,0.457-3.357,0.774-5.013c0.87-2.989,0.343-6.181,0.609-9.253
		c0.349-0.438,0.692-0.869,1.041-1.295c0.032-3.274,0.012-6.587,0.876-9.773c0.533-1.568,0.45-3.255,0.869-4.848
		c10.649,0.095,21.297,0.159,31.951,0.114c0.4,4.937-0.431,9.995,0.464,14.862c-0.723,1.212-0.057,2.513,0.076,3.788
		c-0.12,1.072-0.412,2.12-0.457,3.205c-0.102,24.628,0.222,49.219-0.127,73.834c-7.139-0.013-14.278,0.057-21.418-0.032
		c-0.158-19.336,0.025-38.672-0.12-58.008c-0.558,0.488-1.174,0.926-1.625,1.523c-0.247,3.388,0.229,6.936-1.244,10.128
		c-0.342,2.659,0.292,5.489-0.793,8.021c-0.165,2.818-0.279,5.692-1.168,8.402c-0.273,4.03-0.565,8.078-1.441,12.038
		c-0.184,5.807-2.044,11.435-1.986,17.267c-4.626,1.307-9.506,0.438-14.247,0.635c-0.4-0.152-1.206-0.451-1.605-0.603
		c-1.218-2.868,0.025-6.143-1.276-8.966c-1.142-2.653-0.165-5.673-1.225-8.364c-1.009-2.703-0.387-5.661-1.269-8.389
		c-0.736-2.487-0.66-5.089-0.78-7.653c-1.136-2.856-1.25-5.933-1.25-8.96c-1.231-2.158-1.193-4.639-1.25-7.038
		c-0.476-0.07-1.428-0.216-1.904-0.285c0.082,16.385,0,32.776,0.051,49.162c-0.394,0.374-0.787,0.755-1.18,1.142
		c-6.955-0.057-13.917,0.064-20.878-0.076C162.496,417.346,162.452,385.287,162.591,353.234L162.591,353.234z M245.514,354.376
		c0.939-0.343,1.897-0.685,2.913-0.622c9.532,0.007,19.063-0.013,28.589,0.019c2.284,0.349,4.569,0.698,6.898,0.647
		c1.682,1.053,3.814,0.939,5.432,2.113c4.023,1.314,7.171,4.747,8.466,8.726c0.584,3.154,2.024,6.124,1.758,9.398
		c0.794-0.736,0.616-1.86,0.653-2.824c-0.038-5.61,0.133-11.226-0.07-16.829c0.66-0.482,1.149-1.485,2.133-1.238
		c9.132,0.038,18.27-0.108,27.395,0.057c3.713,1.047,7.71-0.241,11.321,1.25c1.079,0.412,2.234,0.495,3.382,0.59
		c1.422,0.926,2.83,1.885,4.328,2.703c2.399,2.348,4.734,4.962,5.597,8.294c0.324,1.282,0.317,2.665,0.977,3.845
		c0.323,4.861,0.914,9.703,0.545,14.583c-0.482,3.763-1.021,7.666-3.274,10.857c-1.561,0.895-3.065,1.936-4.829,2.386
		c-0.641,0.336-1.276,0.685-1.904,1.034c-0.793,0.102-1.586,0.203-2.38,0.317c5.286,0.857,9.589,4.81,11.854,9.538
		c-0.139,3.63,1.003,7.203,0.419,10.82c0.457,9.601-0.044,19.241,0.406,28.848c-2.582,0.926-5.349,0.482-8.027,0.571
		c-5.115-0.089-10.242,0.184-15.344-0.159c-0.197-0.857-0.292-1.72-0.279-2.589c0.026-11.873,0.026-23.753-0.006-35.626
		c0.102-1.466-0.939-2.602-1.529-3.846c-1.371-0.273-2.729-0.628-3.992-1.244c-0.622-0.038-1.244-0.07-1.866-0.095
		c-0.203,14.361-0.012,28.722-0.095,43.082c-8.078,0.108-16.163,0.013-24.248,0.051c-0.241-1.193-0.501-2.38-0.489-3.592
		c-0.012-17.343,0.025-34.693-0.044-52.036c-0.19,0.031-0.571,0.102-0.761,0.133c0.032,1.034,0.063,2.069,0.108,3.11
		c-0.406,0.565-0.806,1.136-1.206,1.707c0.184,3.693-2.291,7.089-5.362,8.929c-1.853,0.907-3.636,2.17-5.768,2.285
		c-1.802,0.07-3.325,1.307-5.146,1.25c-3.878,0.07-7.755-0.076-11.632,0.102c-0.083,12.609-0.032,25.219-0.032,37.828
		c-0.4,0.178-1.199,0.533-1.593,0.711c-6.574-0.013-13.149-0.007-19.723-0.007c-1.021,0.013-1.999-0.292-2.97-0.546
		c0.032-17.273-0.019-34.509,0.051-51.783c0.026-1.479,0.07-2.989-0.463-4.392C245.304,379.963,245.672,367.163,245.514,354.376
		L245.514,354.376z M325.466,370.837c0.057,6.536-0.108,13.073,0.069,19.603c0.584,1.339,2.361,0.546,3.484,0.749
		c1.358-0.857,3.205-1.618,3.363-3.465c0.241-4.252,0.064-8.516,0.083-12.774c0.095-1.625-1.174-2.805-2.126-3.947
		C328.746,370.609,327.001,369.784,325.466,370.837L325.466,370.837z M270.383,373.655c0.012,6.67,0.025,13.339-0.025,20.009
		c1.834,0.241,3.687,0.235,5.533,0.076c0.216-0.704,0.673-1.161,1.364-1.384c2.107-3.776,1.085-8.167,1.32-12.266
		c0.108-3.237,0.317-7.178-2.646-9.303c-1.644-0.019-3.293-0.07-4.937-0.14C270.612,371.599,270.313,372.601,270.383,373.655
		L270.383,373.655z M368.567,354.3c0.038,0.565,0.108,1.694,0.14,2.259c-0.228-0.419-0.45-0.838-0.666-1.25
		c0.064,1.073,0.184,2.158,0.045,3.237c-1.015,5.204-1.199,10.502-2.1,15.719c-0.654,2.291-0.336,4.696-0.584,7.038
		c-1.396,3.027-0.685,6.447-1.624,9.551c-0.121,1.041-0.209,2.094-0.324,3.141c-0.717,5.477-1.707,10.991-1.853,16.55
		c-1.25,2.773-1.054,5.87-1.263,8.833c-1.422,3.903-0.736,8.167-1.904,12.127c-0.812,2.462-0.133,5.134-1.009,7.565
		c-0.07,0.336-0.203,1.003-0.273,1.339c-1.041,2.703-0.342,5.692-0.685,8.516c2.183,0.768,4.525,0.508,6.797,0.533
		c5.077-0.013,10.16,0.007,15.237,0c1.161,0.013,2.272-0.343,3.395-0.615c0.159-0.387,0.476-1.168,0.635-1.561
		c0.12-2.951,0.044-5.914,0.235-8.859c0.876-1.809,0.152-3.909,0.774-5.736c2.964-0.641,6.112-0.127,9.145-0.178
		c0.044,3.458-0.051,6.93,0.26,10.382c0.927,1.891,0,4.182,0.952,6.016c1.161,0.527,2.456,0.546,3.713,0.552
		c5.698-0.006,11.404-0.006,17.102,0.019c1.675,0.012,3.3-0.476,4.937-0.787c-0.228-0.108-0.679-0.317-0.907-0.425
		c0.006-1.377,0.082-2.786-0.394-4.093c-0.133-1.276-0.235-2.564-0.603-3.789c-0.191-1.092-0.374-2.176-0.66-3.236
		c-0.102-1.497-0.152-2.989-0.273-4.48c-0.431-1.231-0.71-2.507-1.028-3.757c0.012-3.44-0.419-6.841-1.263-10.166
		c-0.038-2.392-0.609-4.715-1.123-7.037c-0.514-2.063,0.051-4.297-0.863-6.264c-0.406-2.945-0.552-5.952-1.263-8.846
		c-0.463-2.557-0.444-5.21-1.168-7.71c-0.152-1.079-0.234-2.177-0.647-3.192c-0.324-5.051-1.707-9.969-1.669-15.059
		c-0.476-1.466-0.876-2.957-0.977-4.493c-0.203-3.757-1.478-7.355-1.504-11.131c-0.14-0.159-0.419-0.482-0.565-0.641
		C392.694,354.122,380.624,354.249,368.567,354.3L368.567,354.3z M386.285,388.897c0.343-2.976-0.127-6.638,2.018-8.986
		c0.044,2.151,0.032,4.309,0.241,6.454c1.333,8.421,1.536,16.982,2.672,25.428c0.375,1.174,0.311,2.392-0.146,3.548
		c-2.43-0.044-4.855-0.051-7.279,0.006c-0.508-1.129-0.596-2.342-0.266-3.528c0.704-2.913-0.082-5.984,0.831-8.853
		c0.774-2.507,0.8-5.121,0.844-7.716C385.581,393.137,385.777,390.985,386.285,388.897z"/>
</g>
</svg>
